<svg width="142" height="78" viewBox="0 0 142 78" fill="none" xmlns="http://www.w3.org/2000/svg">
<g clip-path="url(#clip0_1634_14243)">
<ellipse opacity="0.6" cx="78.5" cy="74.5" rx="79.5" ry="3.5" fill="#66D1B0"/>
<path d="M114.815 74.8379C114.815 74.8379 108.7 74.8379 106.15 74.7815C103.097 74.7163 100.005 73.5701 97.6898 70.0054C93.5007 63.5664 93.5007 53.1199 97.6898 46.6809C99.7843 43.4592 103.817 41.8484 106.562 41.8484H114.737C118.926 48.2874 119.004 68.3946 114.819 74.8336L114.815 74.8379Z" fill="black"/>
<path d="M114.732 74.842C108.809 74.842 104.008 67.4571 104.008 58.3473C104.008 49.2375 108.809 41.8525 114.732 41.8525C120.655 41.8525 125.456 49.2375 125.456 58.3473C125.456 67.4571 120.655 74.842 114.732 74.842Z" fill="#263238"/>
<path opacity="0.4" d="M114.732 68.4597C111.101 68.4597 108.158 63.9323 108.158 58.3475C108.158 52.7627 111.101 48.2353 114.732 48.2353C118.363 48.2353 121.306 52.7627 121.306 58.3475C121.306 63.9323 118.363 68.4597 114.732 68.4597Z" fill="white"/>
<g opacity="0.3">
<path d="M115.257 50.0545V55.2387C115.257 55.6859 115.023 56.0463 114.732 56.0463C114.442 56.0463 114.207 55.6859 114.207 55.2387V50.0545C114.207 49.6073 114.442 49.2469 114.732 49.2469C115.023 49.2469 115.257 49.6073 115.257 50.0545Z" fill="white"/>
</g>
<g opacity="0.3">
<path d="M115.257 61.4476V66.6318C115.257 67.079 115.023 67.4394 114.732 67.4394C114.442 67.4394 114.207 67.079 114.207 66.6318V61.4476C114.207 61.0004 114.442 60.64 114.732 60.64C115.023 60.64 115.257 61.0004 115.257 61.4476Z" fill="white"/>
</g>
<g opacity="0.3">
<path d="M116.74 57.4965C116.488 57.7136 116.172 57.579 116.029 57.1925C115.881 56.8061 115.968 56.3111 116.22 56.0897L119.138 53.4846C119.39 53.2632 119.71 53.3978 119.854 53.7842C119.997 54.1706 119.91 54.6656 119.658 54.887L116.74 57.4921C116.74 57.4921 116.736 57.4921 116.731 57.4965H116.74Z" fill="white"/>
</g>
<g opacity="0.3">
<path d="M109.606 62.8717C109.463 62.4853 109.55 61.9903 109.802 61.7689L112.72 59.1637C112.972 58.938 113.292 59.0682 113.44 59.4547C113.587 59.8411 113.501 60.3404 113.245 60.5662L110.326 63.1713C110.075 63.3971 109.75 63.2625 109.606 62.876V62.8717Z" fill="white"/>
</g>
<g opacity="0.3">
<path d="M119.854 62.8934C119.71 63.2799 119.385 63.4101 119.138 63.1887L116.22 60.5836C115.968 60.3578 115.886 59.8628 116.029 59.472C116.176 59.0856 116.497 58.9554 116.749 59.1811L119.667 61.7863C119.919 62.0077 120.005 62.5027 119.858 62.8891L119.854 62.8934Z" fill="white"/>
</g>
<g opacity="0.3">
<path d="M113.436 57.2012C113.288 57.5877 112.967 57.7136 112.716 57.4878L109.797 54.8827C109.546 54.6612 109.459 54.1663 109.606 53.7798C109.754 53.3934 110.075 53.2588 110.326 53.4846L113.245 56.0897C113.496 56.3111 113.583 56.8061 113.436 57.1925C113.436 57.1925 113.436 57.1969 113.436 57.2012Z" fill="white"/>
</g>
<path d="M114.732 56.9841C115.222 56.9841 115.617 57.592 115.617 58.3431C115.617 59.0943 115.222 59.7021 114.732 59.7021C114.242 59.7021 113.848 59.0943 113.848 58.3431C113.848 57.592 114.242 56.9841 114.732 56.9841Z" fill="#263238"/>
<path opacity="0.3" d="M114.732 74.842C108.809 74.842 104.008 67.4571 104.008 58.3473C104.008 49.2375 108.809 41.8525 114.732 41.8525C120.655 41.8525 125.456 49.2375 125.456 58.3473C125.456 67.4571 120.655 74.842 114.732 74.842Z" fill="black"/>
<path d="M82.0914 65.4898C82.0914 65.4898 79.7887 39.9423 95.708 39.9423C95.708 39.9423 104.42 40.0422 105.821 51.9736C107.221 63.9051 106.319 65.4898 106.319 65.4898H82.0871H82.0914Z" fill="#00B27C"/>
<path opacity="0.3" d="M82.0914 65.4898C82.0914 65.4898 79.7887 39.9423 95.708 39.9423C95.708 39.9423 104.42 40.0422 105.821 51.9736C107.221 63.9051 106.319 65.4898 106.319 65.4898H82.0871H82.0914Z" fill="black"/>
<path d="M95.1919 74.8379C95.1919 74.8379 89.0775 74.8379 86.5276 74.7815C83.4748 74.7163 80.3828 73.5701 78.0672 70.0054C73.8781 63.5664 73.8781 53.1199 78.0672 46.6809C80.1617 43.4592 84.1946 41.8484 86.9396 41.8484H95.1139C99.3029 48.2874 99.381 68.3946 95.1963 74.8336L95.1919 74.8379Z" fill="black"/>
<path d="M95.1139 74.842C89.1911 74.842 84.3897 67.4571 84.3897 58.3473C84.3897 49.2375 89.1911 41.8525 95.1139 41.8525C101.037 41.8525 105.838 49.2375 105.838 58.3473C105.838 67.4571 101.037 74.842 95.1139 74.842Z" fill="#263238"/>
<path opacity="0.4" d="M99.7626 65.4942C97.1954 69.441 93.0324 69.441 90.4652 65.4942C87.898 61.5474 87.898 55.1432 90.4652 51.1964C93.0324 47.2497 97.1954 47.2497 99.7626 51.1964C102.33 55.1432 102.33 61.5474 99.7626 65.4942Z" fill="white"/>
<g opacity="0.3">
<path d="M95.6386 50.0545V55.2387C95.6386 55.6859 95.4044 56.0463 95.1139 56.0463C94.8233 56.0463 94.5892 55.6859 94.5892 55.2387V50.0545C94.5892 49.6073 94.8233 49.2469 95.1139 49.2469C95.4044 49.2469 95.6386 49.6073 95.6386 50.0545Z" fill="white"/>
</g>
<g opacity="0.3">
<path d="M95.6386 61.4476V66.6318C95.6386 67.079 95.4044 67.4394 95.1139 67.4394C94.8233 67.4394 94.5892 67.079 94.5892 66.6318V61.4476C94.5892 61.0004 94.8233 60.64 95.1139 60.64C95.4044 60.64 95.6386 61.0004 95.6386 61.4476Z" fill="white"/>
</g>
<g opacity="0.3">
<path d="M97.1173 57.4965C96.8658 57.7136 96.5493 57.579 96.4062 57.1925C96.2587 56.8061 96.3454 56.3111 96.597 56.0897L99.5154 53.4846C99.7669 53.2632 100.088 53.3978 100.231 53.7842C100.374 54.1706 100.287 54.6656 100.036 54.887L97.1173 57.4921C97.1173 57.4921 97.113 57.4921 97.1087 57.4965H97.1173Z" fill="white"/>
</g>
<g opacity="0.3">
<path d="M89.9881 62.8717C89.845 62.4853 89.9318 61.9903 90.1833 61.7689L93.1017 59.1637C93.3533 58.938 93.6742 59.0682 93.8216 59.4547C93.969 59.8411 93.8823 60.3404 93.6265 60.5662L90.708 63.1713C90.4565 63.3971 90.1313 63.2625 89.9881 62.876V62.8717Z" fill="white"/>
</g>
<g opacity="0.3">
<path d="M100.235 62.8934C100.092 63.2799 99.7669 63.4101 99.5197 63.1887L96.6013 60.5836C96.3498 60.3578 96.2674 59.8628 96.4105 59.472C96.5579 59.0856 96.8788 58.9554 97.1303 59.1811L100.049 61.7863C100.3 62.0077 100.387 62.5027 100.24 62.8891L100.235 62.8934Z" fill="white"/>
</g>
<g opacity="0.3">
<path d="M93.8173 57.2012C93.6698 57.5877 93.3489 57.7136 93.0974 57.4878L90.179 54.8827C89.9274 54.6612 89.8407 54.1663 89.9881 53.7798C90.1356 53.3934 90.4565 53.2588 90.708 53.4846L93.6265 56.0897C93.878 56.3111 93.9647 56.8061 93.8173 57.1925C93.8173 57.1925 93.8173 57.1969 93.8173 57.2012Z" fill="white"/>
</g>
<path d="M95.1139 56.9841C95.6039 56.9841 95.9985 57.592 95.9985 58.3431C95.9985 59.0943 95.6039 59.7021 95.1139 59.7021C94.6239 59.7021 94.2292 59.0943 94.2292 58.3431C94.2292 57.592 94.6239 56.9841 95.1139 56.9841Z" fill="#263238"/>
<path d="M28.0848 74.8379C28.0848 74.8379 21.9704 74.8379 19.4205 74.7815C16.3676 74.7163 13.2757 73.5701 10.96 70.0054C6.771 63.5664 6.771 53.1199 10.96 46.6809C13.0546 43.4592 17.0875 41.8484 19.8325 41.8484H28.0068C32.1958 48.2874 32.2739 68.3946 28.0892 74.8336L28.0848 74.8379Z" fill="black"/>
<path d="M28.0024 74.842C22.0797 74.842 17.2783 67.4571 17.2783 58.3473C17.2783 49.2375 22.0797 41.8525 28.0024 41.8525C33.9252 41.8525 38.7266 49.2375 38.7266 58.3473C38.7266 67.4571 33.9252 74.842 28.0024 74.842Z" fill="#263238"/>
<path opacity="0.3" d="M28.0024 74.842C22.0797 74.842 17.2783 67.4571 17.2783 58.3473C17.2783 49.2375 22.0797 41.8525 28.0024 41.8525C33.9252 41.8525 38.7266 49.2375 38.7266 58.3473C38.7266 67.4571 33.9252 74.842 28.0024 74.842Z" fill="black"/>
<path opacity="0.4" d="M28.0024 68.4597C24.3717 68.4597 21.4283 63.9323 21.4283 58.3475C21.4283 52.7627 24.3717 48.2353 28.0024 48.2353C31.6332 48.2353 34.5765 52.7627 34.5765 58.3475C34.5765 63.9323 31.6332 68.4597 28.0024 68.4597Z" fill="white"/>
<g opacity="0.3">
<path d="M28.5315 50.0545V55.2387C28.5315 55.6859 28.2973 56.0463 28.0068 56.0463C27.7162 56.0463 27.482 55.6859 27.482 55.2387V50.0545C27.482 49.6073 27.7162 49.2469 28.0068 49.2469C28.2973 49.2469 28.5315 49.6073 28.5315 50.0545Z" fill="white"/>
</g>
<g opacity="0.3">
<path d="M28.5315 61.4476V66.6318C28.5315 67.079 28.2973 67.4394 28.0068 67.4394C27.7162 67.4394 27.482 67.079 27.482 66.6318V61.4476C27.482 61.0004 27.7162 60.64 28.0068 60.64C28.2973 60.64 28.5315 61.0004 28.5315 61.4476Z" fill="white"/>
</g>
<g opacity="0.3">
<path d="M30.0102 57.4965C29.7587 57.7136 29.4421 57.579 29.299 57.1925C29.1516 56.8061 29.2383 56.3111 29.4898 56.0897L32.4083 53.4846C32.6598 53.2632 32.9807 53.3978 33.1238 53.7842C33.2669 54.1749 33.1802 54.6656 32.9287 54.887L30.0102 57.4921C30.0102 57.4921 30.0059 57.4921 30.0015 57.4965H30.0102Z" fill="white"/>
</g>
<g opacity="0.3">
<path d="M22.881 62.8717C22.7379 62.4853 22.8247 61.9903 23.0762 61.7689L25.9946 59.1637C26.2461 58.938 26.567 59.0682 26.7145 59.4547C26.8619 59.8411 26.7752 60.3404 26.5193 60.5662L23.6009 63.1713C23.3494 63.3971 23.0241 63.2625 22.881 62.876V62.8717Z" fill="white"/>
</g>
<g opacity="0.3">
<path d="M33.1281 62.8934C32.985 63.2799 32.6598 63.4101 32.4126 63.1887L29.4942 60.5836C29.2426 60.3578 29.1603 59.8628 29.3034 59.472C29.4508 59.0856 29.7717 58.9554 30.0232 59.1811L32.9417 61.7863C33.1932 62.0077 33.2799 62.5027 33.1325 62.8891L33.1281 62.8934Z" fill="white"/>
</g>
<g opacity="0.3">
<path d="M26.7058 57.2012C26.5584 57.5877 26.2375 57.7136 25.986 57.4878L23.0675 54.8827C22.816 54.6612 22.7293 54.1663 22.8767 53.7798C23.0241 53.3934 23.345 53.2588 23.5966 53.4846L26.515 56.0897C26.7665 56.3111 26.8533 56.8061 26.7058 57.1925C26.7058 57.1925 26.7058 57.1969 26.7058 57.2012Z" fill="white"/>
</g>
<path d="M28.0068 56.9841C28.4968 56.9841 28.8914 57.592 28.8914 58.3431C28.8914 59.0943 28.4968 59.7021 28.0068 59.7021C27.5167 59.7021 27.1221 59.0943 27.1221 58.3431C27.1221 57.592 27.5167 56.9841 28.0068 56.9841Z" fill="#263238"/>
<path d="M181.51 36.9247C180.59 32.0097 179.055 24.025 178.288 23.1045C177.52 22.1841 173.535 21.8758 173.535 21.8758C169.394 17.2691 156.202 9.43634 149.454 6.05837C142.707 2.6804 137.49 1.91189 111.879 0.374866C86.2631 -1.16216 71.0811 2.52409 71.0811 2.52409C58.0456 3.9048 36.4195 22.488 36.4195 22.488C24.1776 24.7848 15.8689 31.0892 15.8689 31.0892C15.8689 31.0892 9.27313 32.0097 6.35901 35.2357C3.4449 38.4617 3.13699 42.148 3.13699 42.148C3.13699 42.148 1.4501 42.148 0.530777 43.5287C-0.388565 44.9094 0.071106 54.4311 0.530777 59.1941C0.990448 63.9528 4.67212 66.1064 4.67212 66.1064L79.1383 65.6505H79.1556C80.7341 65.6418 81.9917 64.3479 81.9787 62.7675C81.9223 56.0941 83.1061 40.0856 95.7123 40.0856C95.7123 40.0856 104.424 40.1854 105.825 52.1169C107.026 62.3463 106.536 64.9688 106.371 65.5072L158.045 66.1064L158.353 66.0413C158.175 62.7979 156.839 47.4668 164.619 41.8744C166.948 40.1985 170.968 40.0074 173.392 41.5401C175.846 43.0902 178.687 46.2727 179.341 52.7769C179.654 55.2648 179.658 57.5138 179.563 60.5879L181.514 59.5068C181.822 57.6658 182.433 41.8484 181.514 36.9334L181.51 36.9247Z" fill="#00B27C"/>
<path d="M10.2835 40.5502C9.90192 41.0582 6.20289 46.2684 6.20289 46.2684C5.24886 46.7764 9.27313 49.7245 9.27313 49.2513H40.9468L49.5114 46.3205C49.2208 45.6041 45.9034 40.9322 43.1151 40.5502C40.3267 40.1681 10.2835 40.5502 10.2835 40.5502Z" fill="#263238"/>
<path d="M137.902 22.2796C137.902 22.2796 140.964 24.368 141.115 27.2163C141.263 30.0646 140.443 44.3537 140.356 47.4277C140.209 52.7118 139.52 62.0945 139.52 62.0945" stroke="#263238" stroke-width="0.25" stroke-linecap="round" stroke-linejoin="round"/>
<path d="M103.947 23.3738C103.947 23.3738 108.084 24.7241 109.086 29.3482C109.867 32.9606 108.895 63.1757 109.151 63.3363L156.302 61.4172L157.126 54.2575C159.923 41.0842 166.163 39.5298 166.77 37.9798C167.377 36.4298 168.14 24.0685 167.989 22.5488C167.837 21.0291 161.943 17.1215 161.414 16.5483" stroke="#263238" stroke-width="0.25" stroke-linecap="round" stroke-linejoin="round"/>
<path d="M40.9425 22.0451H97.3385C97.3385 22.0451 111.688 8.55929 115.842 4.27386C110.643 3.49233 80.0446 2.92788 70.6518 4.27386C70.6518 4.27386 54.5374 7.17423 40.9425 22.0451Z" fill="#263238"/>
<path d="M103.783 22.0451C103.783 22.0451 118.739 6.85294 121.818 5.52867C124.897 4.20874 135.235 4.97725 139.411 5.52867C143.591 6.08008 158.774 12.6927 161.41 16.544C161.41 16.544 158.982 20.0609 154.693 21.1637C150.404 22.2666 151.506 21.4937 142.486 22.0451C133.47 22.5965 103.778 23.4779 103.778 23.4779V22.0451H103.783Z" fill="#263238"/>
<path d="M15.8646 30.9503C15.8646 30.9503 9.65038 35.722 10.2835 40.5458" stroke="#263238" stroke-width="0.25" stroke-linecap="round" stroke-linejoin="round"/>
<path opacity="0.7" d="M3.13267 42.009C3.4926 42.5127 3.7788 45.3262 6.41538 45.3479L9.2688 41.818C9.2688 41.818 7.97652 36.3516 8.78744 33.2428C8.78744 33.2428 6.22025 34.8536 5.28357 36.4601C4.34688 38.0666 3.13267 42.0047 3.13267 42.0047V42.009Z" fill="white"/>
<path opacity="0.3" d="M75.7818 32.3788C75.7818 32.3788 80.2224 27.9283 96.6837 24.5374L103.778 23.4779C105.023 23.5604 106.298 24.5026 107.599 25.9571C112.911 26.9948 147.295 24.177 147.295 24.177C147.295 24.177 112.078 26.9341 101.484 27.6288C90.8944 28.3235 91.1676 28.3712 75.7818 32.3831V32.3788Z" fill="black"/>
<path d="M73.9562 34.6105C73.9562 34.6105 73.2797 33.1864 76.3239 32.1747C79.3681 31.1587 94.832 27.8589 95.7167 26.3349C96.6056 24.8109 97.3385 22.0495 97.3385 22.0495" stroke="#263238" stroke-width="0.25" stroke-linecap="round" stroke-linejoin="round"/>
<path opacity="0.3" d="M110.821 59.9931C110.821 59.9931 153.769 59.3895 154.32 58.5646C154.871 57.7396 151.176 55.2474 151.176 55.2474C150.625 54.8697 111.098 57.592 110.821 59.9931Z" fill="white"/>
<path d="M23.796 42.5735C21.5375 42.5735 19.7067 41.792 19.7067 40.828C19.7067 39.8641 21.5375 39.0826 23.796 39.0826C26.0545 39.0826 27.8853 39.8641 27.8853 40.828C27.8853 41.792 26.0545 42.5735 23.796 42.5735Z" fill="#E0E0E0"/>
<path d="M7.99385 58.1825C7.99385 58.1825 4.65908 59.7456 4.78918 59.7499C4.91927 59.7543 5.56975 63.1496 5.56975 63.1496L56.7837 62.4419L61.6058 58.3475L46.2287 58.1347L7.98951 58.1825H7.99385Z" fill="#263238"/>
<path d="M74.5069 58.3431C74.3508 58.608 69.6804 58.3431 69.6804 58.3431L64.9579 62.3377L71.905 62.177L74.5069 58.3475V58.3431Z" fill="#263238"/>
<path d="M43.1628 40.828L48.7568 40.2419" stroke="#263238" stroke-width="0.25" stroke-linecap="round" stroke-linejoin="round"/>
<path opacity="0.7" d="M48.7568 39.9467C48.7568 39.9467 76.2675 33.7552 78.3967 33.9723C80.5259 34.1893 86.4019 35.9087 85.9769 37.5109C85.5519 39.113 81.055 41.5532 75.088 42.5127C70.3352 43.2769 62.6163 44.2191 57.4992 44.5404C51.2547 44.9311 48.7568 39.951 48.7568 39.951V39.9467Z" fill="white"/>
<path opacity="0.3" d="M49.9884 51.5308C49.9884 51.5308 60.4653 46.4117 64.5113 46.4117C68.5572 46.4117 86.61 41.1059 86.61 41.1059C86.61 41.1059 73.1062 49.6681 70.1184 50.3802C67.1305 51.0922 49.9884 51.5308 49.9884 51.5308Z" fill="black"/>
<path opacity="0.3" d="M44.1385 20.8511C44.1385 20.8511 59.3682 7.00924 72.0828 5.71536C84.7974 4.42149 92.7288 4.79923 92.7288 4.79923C92.7288 4.79923 88.9517 14.4946 81.9743 16.4094C74.9969 18.3285 44.1385 20.8511 44.1385 20.8511Z" fill="white"/>
<path opacity="0.3" d="M1.05114 44.5577C1.05114 44.5577 0.691209 47.2887 1.35036 48.5566C2.01384 49.8201 8.14996 51.5004 8.14996 51.5004L1.05114 44.562V44.5577Z" fill="black"/>
<path opacity="0.7" d="M75.552 39.1304C75.552 40.8324 73.7046 42.2131 71.4236 42.2131C69.1426 42.2131 67.2953 40.8324 67.2953 39.1304C67.2953 37.4284 69.1426 36.0476 71.4236 36.0476C73.7046 36.0476 75.552 37.4284 75.552 39.1304Z" fill="white"/>
<path opacity="0.7" d="M72.4644 35.8089L78.3924 35.2227C78.3924 35.2227 80.1573 38.9263 76.6448 41.0929C76.6448 41.0929 80.9726 39.8164 79.6543 35.2227C79.5719 34.8189 79.3854 34.4021 78.388 34.6105C78.0671 34.68 72.4601 35.8089 72.4601 35.8089H72.4644Z" fill="white"/>
<path opacity="0.3" d="M39.9191 22.818C39.9191 22.818 17.1135 26.5563 13.0502 37.8235C13.0502 37.8235 71.6752 23.2261 71.4237 22.818C71.1721 22.4142 39.9191 22.818 39.9191 22.818Z" fill="white"/>
<path d="M103.783 22.0451C103.783 22.0451 118.739 6.85294 121.818 5.52867C124.897 4.20874 135.235 4.97725 139.411 5.52867C143.591 6.08008 158.774 12.6927 161.41 16.544C161.41 16.544 158.982 20.0609 154.693 21.1637C150.404 22.2666 151.506 21.4937 142.486 22.0451C133.47 22.5965 103.778 23.4779 103.778 23.4779V22.0451H103.783Z" stroke="black" stroke-width="0.25" stroke-miterlimit="10"/>
<path opacity="0.3" d="M131.776 30.2654L137.231 29.8336C137.749 29.7926 138.203 30.1798 138.244 30.6986L138.317 31.6335C138.358 32.1522 137.972 32.606 137.454 32.647L131.998 33.0788C131.48 33.1198 131.027 32.7325 130.986 32.2138L130.912 31.2789C130.871 30.7601 131.258 30.3064 131.776 30.2654Z" fill="black"/>
<path d="M135.977 5.16828C136.258 5.18999 139.52 22.2839 139.52 22.2839H134.793L132.598 4.92947C132.598 4.92947 135.699 5.14223 135.977 5.16828Z" fill="black"/>
<path d="M108.795 17.052L111.332 23.1176L103.783 23.4779V21.9192L108.795 17.052Z" fill="black"/>
<path d="M119.628 18.9103C119.589 18.8582 119.55 18.8018 119.507 18.7453C118.522 17.3863 114.142 15.6582 109.953 17.078C106.896 18.1157 107.447 21.7108 107.967 23.5822C108.219 24.4809 108.969 25.1452 109.888 25.2798C112.395 25.6489 117.03 25.2842 118.21 24.672C118.275 24.6372 118.336 24.6068 118.396 24.5721C120.422 23.4389 120.998 20.786 119.624 18.9146L119.628 18.9103Z" fill="#00B27C" stroke="black" stroke-width="0.25" stroke-linecap="round" stroke-linejoin="round"/>
<path opacity="0.3" d="M109.433 18.1896C109.433 18.1896 110.461 17.395 112.282 17.2995C114.103 17.204 118.869 17.573 119.524 20.2606C120.174 22.9526 107.156 19.0189 109.433 18.1896Z" fill="white"/>
</g>
<defs>
<clipPath id="clip0_1634_14243">
<rect width="182" height="78" fill="white" transform="matrix(-1 0 0 1 182 0)"/>
</clipPath>
</defs>
</svg>
