<svg width="20" height="22" viewBox="0 0 20 22" fill="none" xmlns="http://www.w3.org/2000/svg">
<path d="M19.1197 20.4865C18.5068 18.5758 17.3032 16.9091 15.6823 15.7266C14.0612 14.5442 12.1066 13.907 10.1001 13.907C8.09363 13.907 6.13899 14.5442 4.51798 15.7266C2.89698 16.9091 1.69334 18.5758 1.08063 20.4865L19.1197 20.4865Z" stroke="#81858A" stroke-width="1.7" stroke-linecap="round" stroke-linejoin="round"/>
<path d="M10.1 13.9189C13.5112 13.9189 16.2766 11.1536 16.2766 7.74238C16.2766 4.33118 13.5112 1.56586 10.1 1.56586C6.6888 1.56586 3.92346 4.33118 3.92346 7.74238C3.92346 11.1536 6.6888 13.9189 10.1 13.9189Z" stroke="#81858A" stroke-width="1.7" stroke-linecap="round" stroke-linejoin="round"/>
<path d="M12.1169 10.1322C12.1169 10.1322 11.6044 11.1406 10.1001 11.1406C8.59574 11.1406 8.08325 10.1322 8.08325 10.1322" stroke="#81858A" stroke-width="1.7" stroke-linecap="round" stroke-linejoin="round"/>
<path d="M16.1647 6.56642C16.1508 6.56651 16.1371 6.56655 16.1234 6.56655C14.328 6.56655 12.7161 5.78108 11.6126 4.53505C10.509 5.78111 8.89715 6.5666 7.10179 6.5666C6.05923 6.5666 5.07853 6.30172 4.22333 5.83559C5.02682 3.35756 7.35413 1.56586 10.0999 1.56586C13.109 1.56586 15.6155 3.71765 16.1647 6.56642Z" stroke="#81858A" stroke-width="1.7" stroke-linecap="round" stroke-linejoin="round"/>
</svg>
