<svg width="18" height="17" viewBox="0 0 18 17" fill="none" xmlns="http://www.w3.org/2000/svg">
<path d="M14.3735 4.41772H3.6265C2.30752 4.41772 1.23828 5.48696 1.23828 6.80594V13.3735C1.23828 14.6925 2.30752 15.7617 3.6265 15.7617H14.3735C15.6925 15.7617 16.7617 14.6925 16.7617 13.3735V6.80594C16.7617 5.48696 15.6925 4.41772 14.3735 4.41772Z" stroke="#81858A" stroke-width="1.7" stroke-linecap="round" stroke-linejoin="round"/>
<path d="M5.41772 15.7617V4.41772" stroke="#81858A" stroke-width="1.7" stroke-linecap="round" stroke-linejoin="round"/>
<path d="M12.5823 15.7617V4.41772" stroke="#81858A" stroke-width="1.7" stroke-linecap="round" stroke-linejoin="round"/>
<path d="M6.01465 4.41764C6.01465 3.6259 6.32916 2.86658 6.88901 2.30673C7.44885 1.74689 8.20818 1.43237 8.99992 1.43237C9.79166 1.43237 10.551 1.74689 11.1108 2.30673C11.6707 2.86658 11.9852 3.6259 11.9852 4.41764" stroke="#81858A" stroke-width="1.7" stroke-linecap="round" stroke-linejoin="round"/>
</svg>
