<svg width="22" height="22" viewBox="0 0 22 22" fill="none" xmlns="http://www.w3.org/2000/svg">
<path d="M3.27297 3.7027C2.88589 3.7027 2.51468 3.85647 2.24097 4.13016C1.96727 4.40387 1.81351 4.77508 1.81351 5.16216L1.81351 19.0271C1.81351 19.4141 1.96727 19.7854 2.24097 20.0591C2.51468 20.3327 2.88589 20.4865 3.27297 20.4865L19.3271 20.4865C19.7141 20.4865 20.0854 20.3327 20.3591 20.0591C20.6327 19.7854 20.7865 19.4141 20.7865 19.0271L20.7865 5.16216C20.7865 4.77508 20.6327 4.40387 20.3591 4.13016C20.0854 3.85647 19.7141 3.7027 19.3271 3.7027L16.4081 3.7027" stroke="#81858A" stroke-width="1.7" stroke-linecap="round" stroke-linejoin="round"/>
<path d="M1.81351 8.81079L20.7865 8.81079" stroke="#81858A" stroke-width="1.7" stroke-linecap="round" stroke-linejoin="round"/>
<path d="M6.19189 1.51349L6.19189 5.89188" stroke="#81858A" stroke-width="1.7" stroke-linecap="round" stroke-linejoin="round"/>
<path d="M16.4081 1.51349V5.89188" stroke="#81858A" stroke-width="1.7" stroke-linecap="round" stroke-linejoin="round"/>
<path d="M6.19189 3.7027L13.4892 3.7027" stroke="#81858A" stroke-width="1.7" stroke-linecap="round" stroke-linejoin="round"/>
</svg>
