<svg width="21" height="22" viewBox="0 0 21 22" fill="none" xmlns="http://www.w3.org/2000/svg">
<path d="M17.0676 8.08108C17.0676 12.4595 10.5 17.5676 10.5 17.5676C10.5 17.5676 3.9324 12.4595 3.9324 8.08108C3.9324 4.50393 6.92285 1.51349 10.5 1.51349C14.0771 1.51349 17.0676 4.50393 17.0676 8.08108Z" stroke="#81858A" stroke-width="1.7" stroke-linecap="round" stroke-linejoin="round"/>
<path d="M10.5 10.2703C11.7091 10.2703 12.6892 9.29017 12.6892 8.0811C12.6892 6.87204 11.7091 5.89191 10.5 5.89191C9.29095 5.89191 8.31082 6.87204 8.31082 8.0811C8.31082 9.29017 9.29095 10.2703 10.5 10.2703Z" stroke="#81858A" stroke-width="1.7" stroke-linecap="round" stroke-linejoin="round"/>
<path d="M16.4507 15.3784L17.7973 15.3784L19.9865 20.4865L1.01349 20.4865L3.20268 15.3784H4.54933" stroke="#81858A" stroke-width="1.7" stroke-linecap="round" stroke-linejoin="round"/>
</svg>
