<svg width="20" height="19" viewBox="0 0 20 19" fill="none" xmlns="http://www.w3.org/2000/svg">
<path d="M8.0267 6.2977H7.04126C6.75193 6.2826 6.46562 6.36262 6.22604 6.52554C5.98647 6.68845 5.80679 6.9253 5.71447 7.19992L4.69285 10.2781H2.70267C2.35078 10.2781 2.01331 10.4178 1.76449 10.6667C1.51567 10.9155 1.37589 11.253 1.37589 11.6048V14.2585C1.37589 14.6103 1.51567 14.9477 1.76449 15.1966C2.01331 15.4454 2.35078 15.5852 2.70267 15.5852H3.36606" stroke="#00B27C" stroke-width="1.7" stroke-linecap="round" stroke-linejoin="round"/>
<path d="M16.6339 10.2782H17.2973C17.6492 10.2782 17.9867 10.418 18.2355 10.6668C18.4843 10.9156 18.6241 11.2531 18.6241 11.605V14.2586C18.6241 14.6104 18.4843 14.9478 18.2355 15.1968C17.9867 15.4455 17.6492 15.5854 17.2973 15.5854H16.6339" stroke="#00B27C" stroke-width="1.7" stroke-linecap="round" stroke-linejoin="round"/>
<path d="M14.6423 17.5754C13.5424 17.5754 12.6508 16.6837 12.6508 15.5838C12.6508 14.4839 13.5424 13.5923 14.6423 13.5923C15.7423 13.5923 16.6339 14.4839 16.6339 15.5838C16.6339 16.6837 15.7423 17.5754 14.6423 17.5754Z" stroke="#00B27C" stroke-width="1.7" stroke-linecap="round" stroke-linejoin="round"/>
<path d="M5.35485 17.5754C4.25493 17.5754 3.36327 16.6838 3.36327 15.5838C3.36327 14.4839 4.25493 13.5923 5.35485 13.5923C6.45477 13.5923 7.34644 14.4839 7.34644 15.5838C7.34644 16.6838 6.45477 17.5754 5.35485 17.5754Z" stroke="#00B27C" stroke-width="1.7" stroke-linecap="round" stroke-linejoin="round"/>
<path d="M12.651 15.5854H7.34663" stroke="#00B27C" stroke-width="1.7" stroke-linecap="round" stroke-linejoin="round"/>
<path d="M16.8368 4.5412C16.8368 6.83892 13.3902 9.5196 13.3902 9.5196C13.3902 9.5196 9.94365 6.83892 9.94365 4.5412C9.94365 2.66395 11.513 1.0946 13.3902 1.0946C15.2675 1.0946 16.8368 2.66395 16.8368 4.5412Z" stroke="#00B27C" stroke-width="1.7" stroke-linecap="round" stroke-linejoin="round"/>
</svg>
