<svg width="18" height="18" viewBox="0 0 18 18" fill="none" xmlns="http://www.w3.org/2000/svg">
<path d="M8.16659 10.6667H7.33325" stroke="#81858A" stroke-width="1.7" stroke-linecap="round" stroke-linejoin="round"/>
<path d="M16.5 8.1665H1.5" stroke="#81858A" stroke-width="1.7" stroke-linecap="round" stroke-linejoin="round"/>
<path d="M16.5 14.5V3.5C16.5 2.39543 15.6046 1.5 14.5 1.5H8.95756C8.44944 1.5 7.96037 1.6934 7.58968 2.04093L2.13212 7.15739C1.72882 7.53548 1.5 8.06365 1.5 8.61646V10.1576C1.5 10.9365 2.05357 11.6054 2.81872 11.7512L2.87664 11.7622C4.70473 12.1104 6.16393 13.4891 6.61528 15.2945C6.79241 16.003 7.42899 16.5 8.15929 16.5H14.5C15.6046 16.5 16.5 15.6046 16.5 14.5Z" stroke="#81858A" stroke-width="1.7" stroke-linecap="round" stroke-linejoin="round"/>
</svg>
