<svg width="22" height="15" viewBox="0 0 22 15" fill="none" xmlns="http://www.w3.org/2000/svg">
<path d="M3.40264 11.8015H2.6729C2.28583 11.8015 1.91461 11.6478 1.64091 11.374C1.3672 11.1004 1.21344 10.7291 1.21344 10.3421L1.21344 7.42315C1.21344 7.03608 1.3672 6.66486 1.64091 6.39115C1.91461 6.11745 2.28583 5.96369 2.6729 5.96369L4.8621 5.96369L5.98589 2.57773C6.08744 2.27565 6.28508 2.01511 6.54861 1.8359C6.81215 1.65669 7.12709 1.56869 7.44535 1.5853L13.2978 1.5853C13.6161 1.56869 13.931 1.65669 14.1945 1.8359C14.4581 2.01511 14.6557 2.27565 14.7573 2.57773L15.8081 5.96369H18.727C19.1141 5.96369 19.4853 6.11745 19.759 6.39115C20.0326 6.66486 20.1865 7.03608 20.1865 7.42315V10.3421C20.1865 10.7291 20.0326 11.1004 19.759 11.374C19.4853 11.6478 19.1141 11.8015 18.727 11.8015H17.9973" stroke="#81858A" stroke-width="1.7" stroke-linecap="round" stroke-linejoin="round"/>
<path d="M15.8065 13.9906C14.5966 13.9906 13.6158 13.0098 13.6158 11.7999C13.6158 10.5899 14.5966 9.60913 15.8065 9.60913C17.0165 9.60913 17.9973 10.5899 17.9973 11.7999C17.9973 13.0098 17.0165 13.9906 15.8065 13.9906Z" stroke="#81858A" stroke-width="1.7" stroke-linecap="round" stroke-linejoin="round"/>
<path d="M5.59028 13.9906C4.38037 13.9906 3.39954 13.0098 3.39954 11.7999C3.39954 10.59 4.38037 9.60913 5.59028 9.60913C6.80019 9.60913 7.78102 10.59 7.78102 11.7999C7.78102 13.0098 6.80019 13.9906 5.59028 13.9906Z" stroke="#81858A" stroke-width="1.7" stroke-linecap="round" stroke-linejoin="round"/>
<path d="M13.6158 11.8015L7.78107 11.8015" stroke="#81858A" stroke-width="1.7" stroke-linecap="round" stroke-linejoin="round"/>
</svg>
