<svg width="22" height="22" viewBox="0 0 22 22" fill="none" xmlns="http://www.w3.org/2000/svg">
<path d="M3.27297 3.70264C2.88589 3.70264 2.51468 3.85641 2.24097 4.1301C1.96727 4.40381 1.81351 4.77502 1.81351 5.1621L1.81351 19.027C1.81351 19.4141 1.96727 19.7853 2.24097 20.059C2.51468 20.3326 2.88589 20.4865 3.27297 20.4865L19.3271 20.4865C19.7141 20.4865 20.0854 20.3326 20.3591 20.059C20.6327 19.7853 20.7865 19.4141 20.7865 19.027L20.7865 5.1621C20.7865 4.77502 20.6327 4.40381 20.3591 4.1301C20.0854 3.85641 19.7141 3.70264 19.3271 3.70264L16.4081 3.70264" fill="#CCF0E5"/>
<path d="M3.27297 3.70264C2.88589 3.70264 2.51468 3.85641 2.24097 4.1301C1.96727 4.40381 1.81351 4.77502 1.81351 5.1621L1.81351 19.027C1.81351 19.4141 1.96727 19.7853 2.24097 20.059C2.51468 20.3326 2.88589 20.4865 3.27297 20.4865L19.3271 20.4865C19.7141 20.4865 20.0854 20.3326 20.3591 20.059C20.6327 19.7853 20.7865 19.4141 20.7865 19.027L20.7865 5.1621C20.7865 4.77502 20.6327 4.40381 20.3591 4.1301C20.0854 3.85641 19.7141 3.70264 19.3271 3.70264L16.4081 3.70264" stroke="#00B27C" stroke-width="1.7" stroke-linecap="round" stroke-linejoin="round"/>
<path d="M1.81351 8.81104L20.7865 8.81104" stroke="#00B27C" stroke-width="1.7" stroke-linecap="round" stroke-linejoin="round"/>
<path d="M6.19189 1.51367L6.19189 5.89206" stroke="#00B27C" stroke-width="1.7" stroke-linecap="round" stroke-linejoin="round"/>
<path d="M16.4081 1.51367V5.89206" stroke="#00B27C" stroke-width="1.7" stroke-linecap="round" stroke-linejoin="round"/>
<path d="M6.19189 3.70264L13.4892 3.70264" stroke="#00B27C" stroke-width="1.7" stroke-linecap="round" stroke-linejoin="round"/>
</svg>
