<svg width="22" height="22" viewBox="0 0 22 22" fill="none" xmlns="http://www.w3.org/2000/svg">
<path d="M20.3865 10.9124C20.388 10.7099 20.3471 10.5092 20.2667 10.3233C20.1863 10.1373 20.0681 9.97018 19.9195 9.83243L10.9 1.51349L1.88054 9.83243C1.73201 9.97018 1.61377 10.1373 1.53337 10.3233C1.45296 10.5092 1.41215 10.7099 1.41352 10.9124L1.41352 19.0271C1.41352 19.4141 1.56728 19.7854 1.84098 20.059C2.11469 20.3327 2.48591 20.4865 2.87298 20.4865L18.9271 20.4865C19.3141 20.4865 19.6854 20.3327 19.959 20.059C20.2328 19.7854 20.3865 19.4141 20.3865 19.0271L20.3865 10.9124Z" fill="#CCF0E5" stroke="#00B27C" stroke-width="1.7" stroke-linecap="round" stroke-linejoin="round"/>
<path d="M10.9 20.4865L10.9 14.6487" stroke="#00B27C" stroke-width="1.7" stroke-linecap="round" stroke-linejoin="round"/>
</svg>
