<svg width="30" height="30" viewBox="0 0 30 30" fill="none" xmlns="http://www.w3.org/2000/svg">
<path d="M3.57427 4.38571C3.01125 4.38571 2.4713 4.60938 2.07319 5.00748C1.67507 5.4056 1.45142 5.94554 1.45142 6.50857V26.6757C1.45142 27.2387 1.67507 27.7787 2.07319 28.1768C2.4713 28.5748 3.01125 28.7986 3.57427 28.7986H26.9257C27.4887 28.7986 28.0287 28.5748 28.4268 28.1768C28.8248 27.7787 29.0486 27.2387 29.0486 26.6757V6.50857C29.0486 5.94554 28.8248 5.4056 28.4268 5.00748C28.0287 4.60938 27.4887 4.38571 26.9257 4.38571H22.68" fill="#E8FAF5"/>
<path d="M3.57427 4.38571C3.01125 4.38571 2.4713 4.60938 2.07319 5.00748C1.67507 5.4056 1.45142 5.94554 1.45142 6.50857V26.6757C1.45142 27.2387 1.67507 27.7787 2.07319 28.1768C2.4713 28.5748 3.01125 28.7986 3.57427 28.7986H26.9257C27.4887 28.7986 28.0287 28.5748 28.4268 28.1768C28.8248 27.7787 29.0486 27.2387 29.0486 26.6757V6.50857C29.0486 5.94554 28.8248 5.4056 28.4268 5.00748C28.0287 4.60938 27.4887 4.38571 26.9257 4.38571H22.68" stroke="#00B27C" stroke-width="1.7" stroke-linecap="round" stroke-linejoin="round"/>
<path d="M1.45142 11.8157H29.0486" stroke="#00B27C" stroke-width="1.7" stroke-linecap="round" stroke-linejoin="round"/>
<path d="M7.81998 1.20142V7.56999" stroke="#00B27C" stroke-width="1.7" stroke-linecap="round" stroke-linejoin="round"/>
<path d="M22.68 1.20142V7.56999" stroke="#00B27C" stroke-width="1.7" stroke-linecap="round" stroke-linejoin="round"/>
<path d="M7.81998 4.38571H18.4343" stroke="#00B27C" stroke-width="1.7" stroke-linecap="round" stroke-linejoin="round"/>
</svg>
