<svg width="20" height="22" viewBox="0 0 20 22" fill="none" xmlns="http://www.w3.org/2000/svg">
<path d="M19.1197 20.4858C18.5068 18.575 17.3032 16.9083 15.6823 15.7259C14.0612 14.5434 12.1066 13.9063 10.1001 13.9063C8.09363 13.9063 6.13899 14.5434 4.51798 15.7259C2.89698 16.9083 1.69334 18.575 1.08063 20.4858L19.1197 20.4858Z" fill="#CCF0E5" stroke="#00B27C" stroke-width="1.7" stroke-linecap="round" stroke-linejoin="round"/>
<path d="M10.1 13.9185C13.5112 13.9185 16.2766 11.1532 16.2766 7.74196C16.2766 4.33075 13.5112 1.56543 10.1 1.56543C6.6888 1.56543 3.92346 4.33075 3.92346 7.74196C3.92346 11.1532 6.6888 13.9185 10.1 13.9185Z" stroke="#00B27C" stroke-width="1.7" stroke-linecap="round" stroke-linejoin="round"/>
<path d="M12.117 10.1318C12.117 10.1318 11.6045 11.1402 10.1001 11.1402C8.59577 11.1402 8.08328 10.1318 8.08328 10.1318" stroke="#00B27C" stroke-width="1.7" stroke-linecap="round" stroke-linejoin="round"/>
<path d="M16.1647 6.56599C16.1508 6.56608 16.1371 6.56612 16.1234 6.56612C14.328 6.56612 12.7161 5.78066 11.6126 4.53462C10.509 5.78068 8.89715 6.56617 7.10178 6.56617C6.05923 6.56617 5.07853 6.30129 4.22333 5.83517C5.02682 3.35713 7.35413 1.56543 10.0999 1.56543C13.109 1.56543 15.6155 3.71722 16.1647 6.56599Z" fill="#CCF0E5" stroke="#00B27C" stroke-width="1.7" stroke-linecap="round" stroke-linejoin="round"/>
</svg>
