<svg width="30" height="21" viewBox="0 0 30 21" fill="none" xmlns="http://www.w3.org/2000/svg">
<path d="M4.1357 16.5295H3.07427C2.51125 16.5295 1.9713 16.306 1.57319 15.9077C1.17507 15.5097 0.951416 14.9696 0.951416 14.4066V10.161C0.951416 9.59795 1.17507 9.058 1.57319 8.65988C1.9713 8.26176 2.51125 8.03811 3.07427 8.03811H6.25856L7.89316 3.11309C8.04087 2.6737 8.32834 2.29472 8.71167 2.03406C9.09499 1.77339 9.55308 1.64538 10.016 1.66954H18.5287C18.9916 1.64538 19.4497 1.77339 19.833 2.03406C20.2163 2.29472 20.5038 2.6737 20.6515 3.11309L22.18 8.03811H26.4257C26.9887 8.03811 27.5287 8.26176 27.9268 8.65988C28.3248 9.058 28.5486 9.59795 28.5486 10.161V14.4066C28.5486 14.9696 28.3248 15.5097 27.9268 15.9077C27.5287 16.306 26.9887 16.5295 26.4257 16.5295H25.3643" fill="#E8FAF5"/>
<path d="M4.1357 16.5295H3.07427C2.51125 16.5295 1.9713 16.306 1.57319 15.9077C1.17507 15.5097 0.951416 14.9696 0.951416 14.4066V10.161C0.951416 9.59795 1.17507 9.058 1.57319 8.65988C1.9713 8.26176 2.51125 8.03811 3.07427 8.03811H6.25856L7.89316 3.11309C8.04087 2.6737 8.32834 2.29472 8.71167 2.03406C9.09499 1.77339 9.55308 1.64538 10.016 1.66954H18.5287C18.9916 1.64538 19.4497 1.77339 19.833 2.03406C20.2163 2.29472 20.5038 2.6737 20.6515 3.11309L22.18 8.03811H26.4257C26.9887 8.03811 27.5287 8.26176 27.9268 8.65988C28.3248 9.058 28.5486 9.59795 28.5486 10.161V14.4066C28.5486 14.9696 28.3248 15.5097 27.9268 15.9077C27.5287 16.306 26.9887 16.5295 26.4257 16.5295H25.3643" stroke="#00B27C" stroke-width="1.7" stroke-linecap="round" stroke-linejoin="round"/>
<path d="M22.1776 19.7136C20.4179 19.7136 18.9912 18.287 18.9912 16.5272C18.9912 14.7671 20.4179 13.3405 22.1776 13.3405C23.9377 13.3405 25.3643 14.7671 25.3643 16.5272C25.3643 18.287 23.9377 19.7136 22.1776 19.7136Z" stroke="#00B27C" stroke-width="1.7" stroke-linecap="round" stroke-linejoin="round"/>
<path d="M7.31773 19.7136C5.55786 19.7136 4.1312 18.287 4.1312 16.5272C4.1312 14.7673 5.55786 13.3405 7.31773 13.3405C9.0776 13.3405 10.5043 14.7673 10.5043 16.5272C10.5043 18.287 9.0776 19.7136 7.31773 19.7136Z" stroke="#00B27C" stroke-width="1.7" stroke-linecap="round" stroke-linejoin="round"/>
<path d="M18.9913 16.5295H10.5043" stroke="#00B27C" stroke-width="1.7" stroke-linecap="round" stroke-linejoin="round"/>
</svg>
