<svg width="21" height="22" viewBox="0 0 21 22" fill="none" xmlns="http://www.w3.org/2000/svg">
<path d="M17.0676 8.08126C17.0676 12.4597 10.5 17.5678 10.5 17.5678C10.5 17.5678 3.9324 12.4597 3.9324 8.08126C3.9324 4.50411 6.92285 1.51367 10.5 1.51367C14.0771 1.51367 17.0676 4.50411 17.0676 8.08126Z" fill="#CCF0E5" stroke="#00B27C" stroke-width="1.7" stroke-linecap="round" stroke-linejoin="round"/>
<path d="M10.5 10.2705C11.7091 10.2705 12.6892 9.29035 12.6892 8.08129C12.6892 6.87222 11.7091 5.89209 10.5 5.89209C9.29095 5.89209 8.31082 6.87222 8.31082 8.08129C8.31082 9.29035 9.29095 10.2705 10.5 10.2705Z" stroke="#00B27C" stroke-width="1.7" stroke-linecap="round" stroke-linejoin="round"/>
<path d="M16.4507 15.3784L17.7973 15.3784L19.9865 20.4865L1.01349 20.4865L3.20268 15.3784H4.54933" stroke="#00B27C" stroke-width="1.7" stroke-linecap="round" stroke-linejoin="round"/>
</svg>
