<svg width="375" height="168" viewBox="0 0 375 168" fill="none" xmlns="http://www.w3.org/2000/svg">
<path d="M109.375 107H187.5H265.625L375 168H0L109.375 107Z" fill="#CCF0E5"/>
<g style="mix-blend-mode:plus-darker" opacity="0.3">
<path d="M373.73 105.159H264.552V116.824H373.73V105.159Z" fill="url(#paint0_linear_1655_8707)"/>
<path d="M251.606 103.312H271.098V123.114C271.098 125.089 269.488 126.698 267.514 126.698H255.19C253.215 126.698 251.606 125.089 251.606 123.114V103.312Z" fill="url(#paint1_linear_1655_8707)"/>
<path d="M385.925 126.68H373.601C371.627 126.68 370.018 125.071 370.018 123.096V103.294H389.509V123.096C389.509 125.071 387.9 126.68 385.925 126.68Z" fill="url(#paint2_linear_1655_8707)"/>
<path d="M267.605 58.4597L256.031 57.8746C253.8 57.7649 252.027 55.9181 252.027 53.6691C252.027 51.3469 253.91 49.4636 256.232 49.4636H259.98C262.102 49.4636 264.021 50.707 264.881 52.6452L265.85 54.821H271.28L267.605 58.4414V58.4597Z" fill="url(#paint3_linear_1655_8707)"/>
<path d="M391.539 79.6333V102.178C391.539 103.605 391.21 105.031 390.588 106.329L389.29 109.035C387.699 112.345 384.353 114.466 380.659 114.466H363.289C362.1 114.466 360.93 114.246 359.833 113.826L357.145 112.802C354.494 111.778 351.696 111.248 348.862 111.248H292.271C289.419 111.248 286.621 111.778 283.97 112.802L281.282 113.826C280.185 114.246 279.015 114.466 277.826 114.466H260.456C256.781 114.466 253.416 112.363 251.844 109.035L250.527 106.329C249.906 105.031 249.595 103.623 249.595 102.178V79.6333C249.595 77.1832 250.527 74.8062 252.228 73.0326L255.775 69.3025C255.775 69.3025 255.775 69.3025 255.775 69.2842L255.958 69.1014L267.642 56.814C267.642 56.814 271.664 45.2764 280.258 32.7148C280.258 32.7148 286.018 30.1367 319.351 30.027H321.783C355.134 30.155 360.894 32.7331 360.894 32.7331C369.487 45.2947 373.51 56.8323 373.51 56.8323L386.127 70.1253L388.906 73.0508C390.588 74.8245 391.539 77.2015 391.539 79.6516V79.6333Z" fill="url(#paint4_linear_1655_8707)"/>
<path d="M391.539 79.6332V102.178C391.539 103.604 391.21 105.031 390.588 106.329L389.29 109.035C387.699 112.345 384.353 114.466 380.659 114.466H363.289C362.1 114.466 360.93 114.246 359.833 113.826L357.145 112.802C354.494 111.778 351.696 111.247 348.862 111.247H292.271C289.419 111.247 286.621 111.778 283.97 112.802L281.282 113.826C280.185 114.246 279.015 114.466 277.826 114.466H260.456C256.781 114.466 253.416 112.363 251.844 109.035L250.527 106.329C249.906 105.031 249.595 103.623 249.595 102.178V79.6332C249.595 77.1831 250.527 74.806 252.228 73.0324L255.775 69.3024C254.312 71.8622 278.302 80.9314 289.327 81.6994C300.664 82.4673 340.799 82.1199 351.824 81.6994C362.85 81.2788 383.347 74.4221 386.127 70.1069L388.906 73.0324C390.588 74.806 391.539 77.1831 391.539 79.6332Z" fill="url(#paint5_linear_1655_8707)"/>
<path d="M370.201 56.6128C366.525 56.4117 360.51 56.2106 353.891 56.0277C351.514 55.9729 349.027 55.8997 346.558 55.8449C338.513 55.662 330.523 55.5341 325.367 55.4792C323.172 55.4426 321.49 55.4426 320.539 55.4426C314.816 55.4426 282.105 55.9729 270.896 56.6128C272.597 50.5972 278.448 40.9063 281.538 35.5123C283.696 34.7992 286.694 34.269 290.223 33.9033C293.624 33.5376 297.519 33.2999 301.651 33.1536C304.851 33.0439 308.197 32.9708 311.543 32.9525C314.56 32.9159 317.596 32.9159 320.539 32.9159C322.057 32.9159 323.593 32.9159 325.147 32.9159C326.244 32.9159 327.36 32.9159 328.457 32.9159C337.636 32.989 346.796 33.2633 353.397 34.1775C355.829 34.525 357.932 34.9455 359.541 35.494C360.601 37.3408 361.991 39.6995 363.435 42.2411C364.587 44.3073 365.757 46.4648 366.836 48.5859C367.659 50.2315 368.427 51.8405 369.03 53.3582C369.506 54.5101 369.908 55.6255 370.182 56.6128H370.201Z" fill="url(#paint6_linear_1655_8707)"/>
<path d="M351.806 81.6995C351.806 81.6995 332.626 82.8148 320.558 82.8148C306.844 82.8148 289.309 81.6995 289.309 81.6995C289.309 81.6995 278.942 85.6124 278.942 90.0556C278.942 93.4748 284.939 102.709 287.718 106.786C288.559 108.029 289.967 108.779 291.485 108.779H349.649C351.148 108.779 352.556 108.029 353.415 106.786C356.194 102.709 362.192 93.4748 362.192 90.0556C362.192 85.6124 351.824 81.6995 351.824 81.6995H351.806Z" fill="url(#paint7_linear_1655_8707)"/>
<path d="M264.149 105.597C264.149 107.993 262.211 109.931 259.816 109.931C257.421 109.931 255.482 107.993 255.482 105.597C255.482 103.202 257.421 101.264 259.816 101.264C262.211 101.264 264.149 103.202 264.149 105.597Z" fill="url(#paint8_linear_1655_8707)"/>
<path d="M262.632 105.597C262.632 107.152 261.37 108.413 259.816 108.413C258.262 108.413 257 107.152 257 105.597C257 104.043 258.262 102.782 259.816 102.782C261.37 102.782 262.632 104.043 262.632 105.597Z" fill="url(#paint9_linear_1655_8707)"/>
<path d="M257.805 71.8988C255.72 71.6428 253.307 73.1787 252.191 76.1591C251.551 77.8413 251.533 80.2 251.679 82.4125C257.073 87.8064 269.653 87.9344 272.963 87.6053C276.254 87.2762 283.732 83.089 284.537 81.2788C285.341 79.4686 261.041 72.3193 257.805 71.917V71.8988Z" fill="url(#paint10_linear_1655_8707)"/>
<path style="mix-blend-mode:screen" d="M264.771 79.3407C264.771 81.6995 262.851 83.6194 260.492 83.6194C258.134 83.6194 256.214 81.6995 256.214 79.3407C256.214 76.982 258.134 75.0621 260.492 75.0621C262.851 75.0621 264.771 76.982 264.771 79.3407Z" fill="url(#paint11_radial_1655_8707)"/>
<path style="mix-blend-mode:screen" d="M273.804 81.6993C273.804 83.6741 272.213 85.2648 270.238 85.2648C268.263 85.2648 266.673 83.6741 266.673 81.6993C266.673 79.7246 268.263 78.1338 270.238 78.1338C272.213 78.1338 273.804 79.7246 273.804 81.6993Z" fill="url(#paint12_radial_1655_8707)"/>
<path d="M383.311 71.8988C385.395 71.6428 387.79 73.1787 388.924 76.1591C389.564 77.8413 389.582 80.2 389.436 82.4125C384.042 87.8064 371.462 87.9344 368.153 87.6053C364.861 87.2762 357.383 83.089 356.578 81.2788C355.774 79.4686 380.074 72.3193 383.311 71.917V71.8988Z" fill="url(#paint13_linear_1655_8707)"/>
<path style="mix-blend-mode:screen" d="M367.312 81.6993C367.312 83.6741 368.902 85.2648 370.877 85.2648C372.852 85.2648 374.443 83.6741 374.443 81.6993C374.443 79.7246 372.852 78.1338 370.877 78.1338C368.902 78.1338 367.312 79.7246 367.312 81.6993Z" fill="url(#paint14_radial_1655_8707)"/>
<path d="M337.434 97.1134H304.266C304.003 97.1134 303.791 97.3262 303.791 97.5888V105.122C303.791 105.385 304.003 105.597 304.266 105.597H337.434C337.697 105.597 337.91 105.385 337.91 105.122V97.5888C337.91 97.3262 337.697 97.1134 337.434 97.1134Z" fill="url(#paint15_linear_1655_8707)"/>
<path d="M323.666 90.9698H317.449C316.096 90.9698 314.981 89.8728 314.981 88.5014C314.981 87.1483 316.078 86.033 317.449 86.033H323.666C325.019 86.033 326.135 87.1301 326.135 88.5014C326.135 89.8545 325.037 90.9698 323.666 90.9698Z" fill="url(#paint16_linear_1655_8707)"/>
<path style="mix-blend-mode:screen" d="M367.312 53.4315C362.448 54.108 354.055 54.876 344.62 53.9983C331.528 52.7549 318.016 41.8756 313.445 34.2874C316.279 34.2508 319.113 34.2509 321.874 34.2509C323.3 34.2509 324.745 34.2509 326.189 34.2509C327.213 34.2509 328.274 34.2509 329.298 34.2509C337.91 34.324 346.485 34.58 352.666 35.4394C354.951 35.7685 356.908 36.1707 358.425 36.6644C359.413 38.4015 360.729 40.5956 362.082 42.9909C363.161 44.9291 364.258 46.9587 365.264 48.9335C366.032 50.4877 366.745 51.987 367.312 53.3949V53.4315Z" fill="url(#paint17_linear_1655_8707)"/>
<path d="M373.51 58.4597L385.084 57.8746C387.315 57.7649 389.089 55.9181 389.089 53.6691C389.089 51.3469 387.205 49.4636 384.883 49.4636H381.135C379.014 49.4636 377.094 50.707 376.235 52.6452L375.265 54.821H369.835L373.51 58.4414V58.4597Z" fill="url(#paint18_linear_1655_8707)"/>
<path style="mix-blend-mode:screen" d="M255.994 56.8873H258.024C259.871 56.8873 261.37 55.3879 261.37 53.5412C261.37 51.6944 259.871 50.1951 258.024 50.1951H255.994C254.148 50.1951 252.648 51.6944 252.648 53.5412C252.648 55.3879 254.148 56.8873 255.994 56.8873Z" fill="url(#paint19_linear_1655_8707)"/>
<path d="M107.614 105.159H-1.56366V116.824H107.614V105.159Z" fill="url(#paint20_linear_1655_8707)"/>
<path d="M-14.5092 103.312H4.96398V123.114C4.96398 125.089 3.35492 126.698 1.38018 126.698H-10.9254C-12.9002 126.698 -14.5092 125.089 -14.5092 123.114V103.312Z" fill="url(#paint21_linear_1655_8707)"/>
<path d="M119.81 126.68H107.486C105.511 126.68 103.902 125.071 103.902 123.096V103.294H123.394V123.096C123.394 125.071 121.785 126.68 119.81 126.68Z" fill="url(#paint22_linear_1655_8707)"/>
<path d="M1.48988 58.4597L-10.0843 57.8746C-12.3151 57.7649 -14.0887 55.9181 -14.0887 53.6691C-14.0887 51.3469 -12.2053 49.4636 -9.88319 49.4636H-6.13483C-4.01381 49.4636 -2.09391 50.707 -1.23453 52.6452L-0.265447 54.821H5.16511L1.48988 58.4414V58.4597Z" fill="url(#paint23_linear_1655_8707)"/>
<path d="M125.423 79.6333V102.178C125.423 103.605 125.094 105.031 124.473 106.329L123.174 109.035C121.584 112.345 118.238 114.466 114.544 114.466H97.1736C95.9851 114.466 94.8149 114.246 93.7178 113.826L91.03 112.802C88.3787 111.778 85.5812 111.248 82.747 111.248H26.1376C23.2852 111.248 20.4877 111.778 17.8364 112.802L15.1485 113.826C14.0515 114.246 12.8812 114.466 11.6927 114.466H-5.67771C-9.35294 114.466 -12.7173 112.363 -14.2898 109.035L-15.6063 106.329C-16.228 105.031 -16.5388 103.623 -16.5388 102.178V79.6333C-16.5388 77.1832 -15.6063 74.8062 -13.9058 73.0326L-10.3586 69.3025C-10.3586 69.3025 -10.3586 69.3025 -10.3586 69.2842L-10.1757 69.1014L1.50817 56.814C1.50817 56.814 5.5308 45.2764 14.1246 32.7148C14.1246 32.7148 19.8843 30.1367 53.2173 30.027H55.6491C89.0004 30.155 94.7601 32.7331 94.7601 32.7331C103.354 45.2947 107.376 56.8323 107.376 56.8323L119.993 70.1253L122.772 73.0508C124.454 74.8245 125.405 77.2015 125.405 79.6516L125.423 79.6333Z" fill="url(#paint24_linear_1655_8707)"/>
<path d="M125.423 79.6332V102.178C125.423 103.604 125.094 105.031 124.473 106.329L123.174 109.035C121.584 112.345 118.238 114.466 114.544 114.466H97.1736C95.9851 114.466 94.8149 114.246 93.7178 113.826L91.03 112.802C88.3787 111.778 85.5812 111.247 82.747 111.247H26.1376C23.2852 111.247 20.4877 111.778 17.8364 112.802L15.1485 113.826C14.0515 114.246 12.8812 114.466 11.6927 114.466H-5.67771C-9.35294 114.466 -12.7173 112.363 -14.2898 109.035L-15.6063 106.329C-16.228 105.031 -16.5388 103.623 -16.5388 102.178V79.6332C-16.5388 77.1831 -15.6063 74.806 -13.9058 73.0324L-10.3586 69.3024C-11.8214 71.8622 12.1681 80.9314 23.1938 81.6994C34.5303 82.4673 74.6652 82.1199 85.6909 81.6994C96.7165 81.2788 117.214 74.4221 119.993 70.1069L122.772 73.0324C124.454 74.806 125.405 77.1831 125.405 79.6332H125.423Z" fill="url(#paint25_linear_1655_8707)"/>
<path d="M104.085 56.6128C100.41 56.4117 94.3944 56.2106 87.7753 56.0277C85.3983 55.9729 82.9116 55.8997 80.4432 55.8449C72.3979 55.662 64.4075 55.5341 59.2512 55.4792C57.057 55.4426 55.3749 55.4426 54.4241 55.4426C48.7009 55.4426 15.9896 55.9729 4.78113 56.6128C6.4816 50.5972 12.3327 40.9063 15.4228 35.5123C17.5804 34.7992 20.5791 34.269 24.108 33.9033C27.509 33.5376 31.4036 33.2999 35.536 33.1536C38.7358 33.0439 42.0819 32.9708 45.428 32.9525C48.445 32.9159 51.4802 32.9159 54.4241 32.9159C55.9417 32.9159 57.4776 32.9159 59.0318 32.9159C60.1289 32.9159 61.2442 32.9159 62.3413 32.9159C71.5202 32.989 80.6809 33.2633 87.2816 34.1775C89.7135 34.525 91.8162 34.9455 93.4253 35.494C94.4858 37.3408 95.8754 39.6995 97.3199 42.2411C98.4719 44.3073 99.6421 46.4648 100.721 48.5859C101.544 50.2315 102.312 51.8405 102.915 53.3582C103.39 54.5101 103.793 55.6255 104.067 56.6128H104.085Z" fill="url(#paint26_linear_1655_8707)"/>
<path d="M85.6909 81.6995C85.6909 81.6995 66.5102 82.8148 54.4423 82.8148C40.7288 82.8148 23.1938 81.6995 23.1938 81.6995C23.1938 81.6995 12.8264 85.6124 12.8264 90.0556C12.8264 93.4748 18.8238 102.709 21.603 106.786C22.4441 108.029 23.8521 108.779 25.3697 108.779H83.5333C85.0326 108.779 86.4405 108.029 87.2999 106.786C90.0792 102.709 96.0766 93.4748 96.0766 90.0556C96.0766 85.6124 85.7091 81.6995 85.7091 81.6995H85.6909Z" fill="url(#paint27_linear_1655_8707)"/>
<path d="M-8.31071 71.8988C-10.3952 71.6428 -12.7905 73.1787 -13.9241 76.1591C-14.5641 77.8413 -14.5824 80.2 -14.4361 82.4125C-9.0421 87.8064 3.53776 87.9344 6.84729 87.6053C10.1385 87.2762 17.617 83.089 18.4215 81.2788C19.226 79.4686 -5.07433 72.3193 -8.31071 71.917V71.8988Z" fill="url(#paint28_linear_1655_8707)"/>
<path style="mix-blend-mode:screen" d="M7.6884 81.6993C7.6884 83.6741 6.09763 85.2648 4.12289 85.2648C2.14814 85.2648 0.557373 83.6741 0.557373 81.6993C0.557373 79.7246 2.14814 78.1338 4.12289 78.1338C6.09763 78.1338 7.6884 79.7246 7.6884 81.6993Z" fill="url(#paint29_radial_1655_8707)"/>
<path d="M117.195 71.8988C119.28 71.6428 121.693 73.1787 122.809 76.1591C123.449 77.8413 123.467 80.2 123.321 82.4125C117.927 87.8064 105.347 87.9344 102.037 87.6053C98.7461 87.2762 91.2677 83.089 90.4631 81.2788C89.6586 79.4686 113.959 72.3193 117.195 71.917V71.8988Z" fill="url(#paint30_linear_1655_8707)"/>
<path style="mix-blend-mode:screen" d="M110.229 79.3407C110.229 81.6995 112.149 83.6194 114.507 83.6194C116.866 83.6194 118.786 81.6995 118.786 79.3407C118.786 76.982 116.866 75.0621 114.507 75.0621C112.149 75.0621 110.229 76.982 110.229 79.3407Z" fill="url(#paint31_radial_1655_8707)"/>
<path style="mix-blend-mode:screen" d="M101.196 81.6993C101.196 83.6741 102.787 85.2648 104.762 85.2648C106.736 85.2648 108.327 83.6741 108.327 81.6993C108.327 79.7246 106.736 78.1338 104.762 78.1338C102.787 78.1338 101.196 79.7246 101.196 81.6993Z" fill="url(#paint32_radial_1655_8707)"/>
<path d="M71.3191 97.1134H38.1507C37.8881 97.1134 37.6753 97.3262 37.6753 97.5888V105.122C37.6753 105.385 37.8881 105.597 38.1507 105.597H71.3191C71.5816 105.597 71.7945 105.385 71.7945 105.122V97.5888C71.7945 97.3262 71.5816 97.1134 71.3191 97.1134Z" fill="url(#paint33_linear_1655_8707)"/>
<path d="M57.5507 90.9698H51.3339C49.9809 90.9698 48.8655 89.8728 48.8655 88.5014C48.8655 87.1483 49.9626 86.033 51.3339 86.033H57.5507C58.9038 86.033 60.0192 87.1301 60.0192 88.5014C60.0192 89.8545 58.9221 90.9698 57.5507 90.9698Z" fill="url(#paint34_linear_1655_8707)"/>
<path style="mix-blend-mode:screen" d="M101.196 53.4315C96.3326 54.108 87.9399 54.876 78.505 53.9983C65.4131 52.7549 51.9008 41.8756 47.3296 34.2874C50.1637 34.2508 52.9978 34.2509 55.7588 34.2509C57.185 34.2509 58.6295 34.2509 60.074 34.2509C61.098 34.2509 62.1585 34.2509 63.1824 34.2509C71.7945 34.324 80.37 34.58 86.5502 35.4394C88.8358 35.7685 90.7923 36.1707 92.3099 36.6644C93.2973 38.4015 94.6138 40.5956 95.9669 42.9909C97.0457 44.9291 98.1427 46.9587 99.1484 48.9335C99.9164 50.4877 100.629 51.987 101.196 53.3949V53.4315Z" fill="url(#paint35_linear_1655_8707)"/>
<path d="M107.395 58.4597L118.969 57.8746C121.2 57.7649 122.973 55.9181 122.973 53.6691C122.973 51.3469 121.09 49.4636 118.768 49.4636H115.019C112.898 49.4636 110.979 50.707 110.119 52.6452L109.15 54.821H103.72L107.395 58.4414V58.4597Z" fill="url(#paint36_linear_1655_8707)"/>
<path style="mix-blend-mode:screen" d="M117.049 56.8871H119.079C120.925 56.8871 122.425 55.3878 122.425 53.541C122.425 51.6943 120.925 50.1949 119.079 50.1949H117.049C115.202 50.1949 113.703 51.6943 113.703 53.541C113.703 55.3878 115.202 56.8871 117.049 56.8871Z" fill="url(#paint37_linear_1655_8707)"/>
</g>
<path d="M272.78 46.3733L291.394 45.4407C294.996 45.2579 297.812 42.2958 297.812 38.6937C297.812 34.9636 294.776 31.9283 291.046 31.9283H285.012C281.611 31.9283 278.521 33.9397 277.132 37.0481L275.559 40.5587H266.837L272.762 46.3733H272.78Z" fill="#008E63"/>
<path style="mix-blend-mode:screen" d="M288.304 43.85H291.577C294.539 43.85 296.952 41.4365 296.952 38.4743C296.952 35.5122 294.539 33.0986 291.577 33.0986H288.304C285.341 33.0986 282.928 35.5122 282.928 38.4743C282.928 41.4365 285.341 43.85 288.304 43.85Z" fill="url(#paint38_linear_1655_8707)"/>
<path d="M273.145 121.45H97.6856V140.211H273.145V121.45Z" fill="#008E63"/>
<path d="M76.8777 118.452H108.199V150.267C108.199 153.449 105.621 156.008 102.458 156.008H82.6374C79.4558 156.008 76.896 153.43 76.896 150.267V118.452H76.8777Z" fill="#041E3F"/>
<path d="M292.747 156.027H272.926C269.745 156.027 267.185 153.449 267.185 150.285V118.47H298.506V150.285C298.506 153.467 295.928 156.027 292.765 156.027H292.747Z" fill="#041E3F"/>
<path d="M102.586 46.3733L83.9722 45.4407C80.3701 45.2579 77.5542 42.2958 77.5542 38.6937C77.5542 34.9636 80.5895 31.9283 84.3196 31.9283H90.3535C93.7545 31.9283 96.8446 33.9397 98.2342 37.0481L99.8067 40.5587H108.528L102.604 46.3733H102.586Z" fill="#008E63"/>
<path d="M301.761 80.4194V116.66C301.761 118.964 301.231 121.231 300.243 123.315L298.159 127.667C295.599 133.006 290.223 136.389 284.281 136.389H256.36C254.459 136.389 252.575 136.041 250.802 135.347L246.486 133.683C242.244 132.019 237.728 131.178 233.175 131.178H142.209C137.638 131.178 133.121 132.019 128.861 133.683L124.546 135.347C122.772 136.041 120.889 136.389 118.987 136.389H91.0666C85.1606 136.389 79.7666 133.006 77.2251 127.667L75.1223 123.315C74.135 121.231 73.623 118.964 73.623 116.66V80.4194C73.623 76.4882 75.1223 72.6668 77.8467 69.8143L83.5516 63.817C83.5516 63.817 83.5516 63.7987 83.5699 63.7804L83.8624 63.4878L102.622 43.7587C102.622 43.7587 109.077 25.218 122.882 5.01341C122.882 5.01341 132.134 0.881067 185.726 0.69822L189.621 0.679932C243.232 0.881063 252.484 5.01341 252.484 5.01341C266.289 25.218 272.743 43.7587 272.743 43.7587L293.039 65.1152H293.058L297.519 69.8326C300.225 72.685 301.743 76.4883 301.743 80.4377L301.761 80.4194Z" fill="#00B27C"/>
<path d="M301.761 80.4195V116.66C301.761 118.964 301.231 121.231 300.243 123.315L298.159 127.667C295.599 133.006 290.223 136.389 284.281 136.389H256.36C254.459 136.389 252.575 136.042 250.802 135.347L246.486 133.683C242.244 132.019 237.728 131.178 233.175 131.178H142.209C137.638 131.178 133.121 132.019 128.861 133.683L124.546 135.347C122.772 136.042 120.889 136.389 118.987 136.389H91.0666C85.1606 136.389 79.7666 133.006 77.2251 127.667L75.1223 123.315C74.135 121.231 73.623 118.964 73.623 116.66V80.4195C73.623 76.4883 75.1223 72.6668 77.8467 69.8144L83.5516 63.817C81.2111 67.9311 119.755 82.504 137.473 83.7291C155.703 84.9724 220.175 84.3873 237.893 83.7291C255.61 83.0342 288.541 72.0451 293.021 65.097H293.039L297.501 69.8144C300.207 72.6668 301.724 76.47 301.724 80.4195H301.761Z" fill="#00B27C"/>
<path d="M267.459 43.4113C261.553 43.0822 251.88 42.7713 241.257 42.4788C237.436 42.3874 233.449 42.2776 229.482 42.1862C216.554 41.8937 203.7 41.6925 195.436 41.5828C191.888 41.5463 189.201 41.5097 187.665 41.5097C178.467 41.5097 125.899 42.3691 107.889 43.393C110.631 33.7204 120.011 18.1419 124.985 9.47492C128.459 8.32298 133.268 7.48189 138.954 6.87849C144.421 6.2751 150.675 5.9094 157.312 5.68999C162.468 5.50714 167.826 5.39743 173.22 5.36086C178.065 5.28772 182.929 5.28772 187.665 5.28772C190.096 5.28772 192.583 5.28772 195.07 5.30601C196.844 5.30601 198.635 5.30601 200.409 5.3243C215.165 5.43401 229.884 5.87284 240.471 7.3539C244.384 7.90244 247.748 8.59725 250.345 9.45663C252.045 12.4187 254.276 16.2037 256.598 20.2994C258.463 23.6273 260.346 27.0831 262.065 30.5023C263.4 33.1536 264.607 35.75 265.576 38.1636C266.344 40.0286 266.984 41.784 267.441 43.393L267.459 43.4113Z" fill="#041E3F"/>
<path d="M237.893 83.729C237.893 83.729 207.065 85.5209 187.683 85.5209C165.65 85.5209 137.473 83.729 137.473 83.729C137.473 83.729 120.816 90.0006 120.816 97.15C120.816 102.635 130.452 117.483 134.913 124.047C136.266 126.058 138.534 127.247 140.947 127.247H234.437C236.869 127.247 239.118 126.058 240.471 124.047C244.932 117.483 254.568 102.654 254.568 97.15C254.568 90.0006 237.911 83.729 237.911 83.729H237.893Z" fill="#041E3F"/>
<path d="M97.0457 122.127C97.0457 125.967 93.9373 129.093 90.0792 129.093C86.2211 129.093 83.1127 125.985 83.1127 122.127C83.1127 118.269 86.2211 115.16 90.0792 115.16C93.9373 115.16 97.0457 118.269 97.0457 122.127Z" fill="#041E3F"/>
<path d="M94.6138 122.127C94.6138 124.632 92.5842 126.661 90.0792 126.661C87.5742 126.661 85.5446 124.632 85.5446 122.127C85.5446 119.622 87.5742 117.592 90.0792 117.592C92.5842 117.592 94.6138 119.622 94.6138 122.127Z" fill="url(#paint39_linear_1655_8707)"/>
<path d="M292.046 122.127C292.046 125.967 288.937 129.093 285.079 129.093C281.221 129.093 278.113 125.985 278.113 122.127C278.113 118.269 281.221 115.16 285.079 115.16C288.937 115.16 292.046 118.269 292.046 122.127Z" fill="#041E3F"/>
<path d="M289.614 122.127C289.614 124.632 287.584 126.661 285.079 126.661C282.574 126.661 280.545 124.632 280.545 122.127C280.545 119.622 282.574 117.592 285.079 117.592C287.584 117.592 289.614 119.622 289.614 122.127Z" fill="url(#paint40_linear_1655_8707)"/>
<path d="M86.8428 68.0041C83.4784 67.5836 79.6204 70.0703 77.8102 74.8426C76.7862 77.5487 76.7497 81.3336 76.9874 84.8809C85.636 93.5478 105.877 93.7489 111.18 93.2187C116.482 92.6884 128.495 85.9597 129.794 83.0524C131.092 80.1269 92.0174 68.6624 86.8245 68.0041H86.8428Z" fill="url(#paint41_linear_1655_8707)"/>
<path style="mix-blend-mode:screen" d="M98.033 79.944C98.033 83.7472 94.9612 86.819 91.158 86.819C87.3548 86.819 84.283 83.7472 84.283 79.944C84.283 76.1408 87.3548 73.069 91.158 73.069C94.9612 73.069 98.033 76.1408 98.033 79.944Z" fill="url(#paint42_radial_1655_8707)"/>
<path style="mix-blend-mode:screen" d="M112.551 83.7291C112.551 86.8923 109.991 89.4705 106.81 89.4705C103.628 89.4705 101.068 86.9106 101.068 83.7291C101.068 80.5475 103.628 77.9877 106.81 77.9877C109.991 77.9877 112.551 80.5475 112.551 83.7291Z" fill="url(#paint43_radial_1655_8707)"/>
<path d="M288.523 68.0041C291.887 67.5836 295.745 70.0703 297.556 74.8426C298.58 77.5487 298.616 81.3336 298.378 84.8809C289.73 93.5478 269.489 93.7489 264.186 93.2187C258.883 92.6884 246.87 85.9597 245.572 83.0524C244.274 80.1269 283.348 68.6624 288.541 68.0041H288.523Z" fill="url(#paint44_linear_1655_8707)"/>
<path style="mix-blend-mode:screen" d="M277.333 79.944C277.333 83.7472 280.405 86.819 284.208 86.819C288.011 86.819 291.083 83.7472 291.083 79.944C291.083 76.1408 288.011 73.069 284.208 73.069C280.405 73.069 277.333 76.1408 277.333 79.944Z" fill="url(#paint45_radial_1655_8707)"/>
<path style="mix-blend-mode:screen" d="M262.815 83.7291C262.815 86.8923 265.375 89.4705 268.556 89.4705C271.738 89.4705 274.297 86.9106 274.297 83.7291C274.297 80.5475 271.738 77.9877 268.556 77.9877C265.375 77.9877 262.815 80.5475 262.815 83.7291Z" fill="url(#paint46_radial_1655_8707)"/>
<path d="M214.817 108.486H161.517C161.093 108.486 160.75 108.83 160.75 109.254V121.359C160.75 121.783 161.093 122.127 161.517 122.127H214.817C215.241 122.127 215.585 121.783 215.585 121.359V109.254C215.585 108.83 215.241 108.486 214.817 108.486Z" fill="#CCF0E5"/>
<g style="mix-blend-mode:screen" opacity="0.05">
<path d="M262.815 38.2915C254.989 39.3703 241.495 40.6137 226.337 39.2057C205.291 37.2127 183.587 19.7143 176.237 7.53666C180.771 7.48181 185.342 7.48181 189.786 7.48181C192.071 7.48181 194.393 7.4818 196.734 7.50009C198.398 7.50009 200.08 7.50009 201.726 7.51837C215.549 7.62808 229.354 8.03035 239.282 9.41998C242.958 9.93195 246.102 10.5902 248.534 11.3947C250.125 14.174 252.228 17.7212 254.404 21.561C256.141 24.6694 257.914 27.9241 259.523 31.1239C260.767 33.6106 261.9 36.0425 262.815 38.2915Z" fill="white"/>
</g>
<path style="mix-blend-mode:screen" d="M101.087 48.1834C93.0779 56.1921 86.2943 61.1473 88.9638 63.8168C91.6334 66.4864 129.867 81.937 149.998 81.937C170.13 81.937 224.234 85.4476 239.611 80.657C254.989 75.8665 284.756 68.1503 287.225 65.6636C289.693 63.1769 273.164 48.1652 273.164 48.1652H101.087V48.1834Z" fill="url(#paint47_linear_1655_8707)"/>
<path style="mix-blend-mode:screen" d="M83.9173 43.85H87.1902C90.1523 43.85 92.5659 41.4365 92.5659 38.4743C92.5659 35.5122 90.1523 33.0986 87.1902 33.0986H83.9173C80.9551 33.0986 78.5416 35.5122 78.5416 38.4743C78.5416 41.4365 80.9551 43.85 83.9173 43.85Z" fill="url(#paint48_linear_1655_8707)"/>
<path d="M193.205 95.742C193.205 98.7955 190.736 101.264 187.683 101.264C184.629 101.264 182.161 98.7955 182.161 95.742C182.161 92.6884 184.629 90.22 187.683 90.22C190.736 90.22 193.205 92.6884 193.205 95.742Z" fill="url(#paint49_linear_1655_8707)"/>
<defs>
<linearGradient id="paint0_linear_1655_8707" x1="319.15" y1="117.281" x2="319.15" y2="110.662" gradientUnits="userSpaceOnUse">
<stop stop-color="#B5B3C3"/>
<stop offset="1" stop-color="#918F9C"/>
</linearGradient>
<linearGradient id="paint1_linear_1655_8707" x1="261.352" y1="126.277" x2="261.352" y2="111.284" gradientUnits="userSpaceOnUse">
<stop stop-color="#B5B3C3"/>
<stop offset="1" stop-color="#918F9C"/>
</linearGradient>
<linearGradient id="paint2_linear_1655_8707" x1="379.763" y1="126.278" x2="379.763" y2="111.284" gradientUnits="userSpaceOnUse">
<stop stop-color="#B5B3C3"/>
<stop offset="1" stop-color="#918F9C"/>
</linearGradient>
<linearGradient id="paint3_linear_1655_8707" x1="261.791" y1="49.3905" x2="261.571" y2="57.8197" gradientUnits="userSpaceOnUse">
<stop stop-color="white"/>
<stop offset="1" stop-color="#CDCADC"/>
</linearGradient>
<linearGradient id="paint4_linear_1655_8707" x1="320.558" y1="29.771" x2="320.558" y2="80.8036" gradientUnits="userSpaceOnUse">
<stop stop-color="#F0F0F0"/>
<stop offset="0.52" stop-color="#CDCADC"/>
<stop offset="1" stop-color="#EDEDED"/>
</linearGradient>
<linearGradient id="paint5_linear_1655_8707" x1="250.363" y1="91.884" x2="388.558" y2="91.884" gradientUnits="userSpaceOnUse">
<stop stop-color="#CDCADC"/>
<stop offset="0.05" stop-color="#D3D1E0"/>
<stop offset="0.2" stop-color="#E6E5EB"/>
<stop offset="0.36" stop-color="#F1F1F2"/>
<stop offset="0.52" stop-color="#F5F5F5"/>
<stop offset="0.66" stop-color="#F1F0F2"/>
<stop offset="0.81" stop-color="#E5E4EB"/>
<stop offset="0.97" stop-color="#D2CFDF"/>
<stop offset="1" stop-color="#CDCADC"/>
</linearGradient>
<linearGradient id="paint6_linear_1655_8707" x1="352.556" y1="29.8441" x2="286" y2="70.2898" gradientUnits="userSpaceOnUse">
<stop stop-color="#B5B3C3"/>
<stop offset="1" stop-color="#918F9C"/>
</linearGradient>
<linearGradient id="paint7_linear_1655_8707" x1="320.74" y1="108.541" x2="320.503" y2="85.1004" gradientUnits="userSpaceOnUse">
<stop stop-color="#B5B3C3"/>
<stop offset="1" stop-color="#918F9C"/>
</linearGradient>
<linearGradient id="paint8_linear_1655_8707" x1="259.852" y1="109.766" x2="259.779" y2="102.434" gradientUnits="userSpaceOnUse">
<stop stop-color="#B5B3C3"/>
<stop offset="1" stop-color="#918F9C"/>
</linearGradient>
<linearGradient id="paint9_linear_1655_8707" x1="259.852" y1="108.304" x2="259.798" y2="103.531" gradientUnits="userSpaceOnUse">
<stop stop-color="#E9E5F9"/>
<stop offset="1" stop-color="#C4C1D2"/>
</linearGradient>
<linearGradient id="paint10_linear_1655_8707" x1="268.154" y1="87.4407" x2="268.007" y2="73.9101" gradientUnits="userSpaceOnUse">
<stop stop-color="#E9E5F9"/>
<stop offset="1" stop-color="#C4C1D2"/>
</linearGradient>
<radialGradient id="paint11_radial_1655_8707" cx="0" cy="0" r="1" gradientUnits="userSpaceOnUse" gradientTransform="translate(260.492 79.3407) scale(4.27862 4.27861)">
<stop stop-color="#E9E5F9"/>
<stop offset="1" stop-color="#C4C1D2"/>
</radialGradient>
<radialGradient id="paint12_radial_1655_8707" cx="0" cy="0" r="1" gradientUnits="userSpaceOnUse" gradientTransform="translate(270.238 81.6993) scale(3.56551 3.56552)">
<stop stop-color="#E9E5F9"/>
<stop offset="1" stop-color="#C4C1D2"/>
</radialGradient>
<linearGradient id="paint13_linear_1655_8707" x1="372.962" y1="87.4407" x2="373.09" y2="73.9101" gradientUnits="userSpaceOnUse">
<stop stop-color="#E9E5F9"/>
<stop offset="1" stop-color="#C4C1D2"/>
</linearGradient>
<radialGradient id="paint14_radial_1655_8707" cx="0" cy="0" r="1" gradientUnits="userSpaceOnUse" gradientTransform="translate(370.877 81.6993) rotate(180) scale(3.56552)">
<stop stop-color="#E9E5F9"/>
<stop offset="1" stop-color="#C4C1D2"/>
</radialGradient>
<linearGradient id="paint15_linear_1655_8707" x1="340.397" y1="90.0738" x2="289.053" y2="119.677" gradientUnits="userSpaceOnUse">
<stop stop-color="#E9E5F9"/>
<stop offset="1" stop-color="#C4C1D2"/>
</linearGradient>
<linearGradient id="paint16_linear_1655_8707" x1="320.558" y1="86.033" x2="320.558" y2="89.0134" gradientUnits="userSpaceOnUse">
<stop stop-color="#E9E5F9"/>
<stop offset="1" stop-color="#C4C1D2"/>
</linearGradient>
<linearGradient id="paint17_linear_1655_8707" x1="340.269" y1="53.8886" x2="340.433" y2="37.0667" gradientUnits="userSpaceOnUse">
<stop stop-color="#B5B3C3"/>
<stop offset="1" stop-color="#918F9C"/>
</linearGradient>
<linearGradient id="paint18_linear_1655_8707" x1="379.325" y1="49.3905" x2="379.544" y2="57.8197" gradientUnits="userSpaceOnUse">
<stop stop-color="white"/>
<stop offset="1" stop-color="#CDCADC"/>
</linearGradient>
<linearGradient id="paint19_linear_1655_8707" x1="257" y1="-169.44" x2="257" y2="-169.44" gradientUnits="userSpaceOnUse">
<stop stop-color="#82818C"/>
<stop offset="1"/>
</linearGradient>
<linearGradient id="paint20_linear_1655_8707" x1="53.0344" y1="-169.441" x2="53.0344" y2="-169.441" gradientUnits="userSpaceOnUse">
<stop stop-color="#B5B3C3"/>
<stop offset="1" stop-color="#918F9C"/>
</linearGradient>
<linearGradient id="paint21_linear_1655_8707" x1="-4.76348" y1="126.277" x2="-4.76348" y2="111.284" gradientUnits="userSpaceOnUse">
<stop stop-color="#B5B3C3"/>
<stop offset="1" stop-color="#918F9C"/>
</linearGradient>
<linearGradient id="paint22_linear_1655_8707" x1="113.648" y1="126.278" x2="113.648" y2="111.284" gradientUnits="userSpaceOnUse">
<stop stop-color="#B5B3C3"/>
<stop offset="1" stop-color="#918F9C"/>
</linearGradient>
<linearGradient id="paint23_linear_1655_8707" x1="-4.32465" y1="49.3905" x2="-4.54406" y2="57.8197" gradientUnits="userSpaceOnUse">
<stop stop-color="white"/>
<stop offset="1" stop-color="#CDCADC"/>
</linearGradient>
<linearGradient id="paint24_linear_1655_8707" x1="54.4423" y1="-169.441" x2="54.4423" y2="-169.441" gradientUnits="userSpaceOnUse">
<stop stop-color="#F0F0F0"/>
<stop offset="0.52" stop-color="#CDCADC"/>
<stop offset="1" stop-color="#EDEDED"/>
</linearGradient>
<linearGradient id="paint25_linear_1655_8707" x1="-15.7526" y1="-169.441" x2="122.443" y2="-169.441" gradientUnits="userSpaceOnUse">
<stop stop-color="#CDCADC"/>
<stop offset="0.05" stop-color="#D3D1E0"/>
<stop offset="0.2" stop-color="#E6E5EB"/>
<stop offset="0.36" stop-color="#F1F1F2"/>
<stop offset="0.52" stop-color="#F5F5F5"/>
<stop offset="0.66" stop-color="#F1F0F2"/>
<stop offset="0.81" stop-color="#E5E4EB"/>
<stop offset="0.97" stop-color="#D2CFDF"/>
<stop offset="1" stop-color="#CDCADC"/>
</linearGradient>
<linearGradient id="paint26_linear_1655_8707" x1="86.4405" y1="29.8441" x2="19.8843" y2="70.2898" gradientUnits="userSpaceOnUse">
<stop stop-color="#B5B3C3"/>
<stop offset="1" stop-color="#918F9C"/>
</linearGradient>
<linearGradient id="paint27_linear_1655_8707" x1="54.6252" y1="108.541" x2="54.3875" y2="85.1004" gradientUnits="userSpaceOnUse">
<stop stop-color="#B5B3C3"/>
<stop offset="1" stop-color="#918F9C"/>
</linearGradient>
<linearGradient id="paint28_linear_1655_8707" x1="2.03842" y1="87.4407" x2="1.89214" y2="73.9101" gradientUnits="userSpaceOnUse">
<stop stop-color="#E9E5F9"/>
<stop offset="1" stop-color="#C4C1D2"/>
</linearGradient>
<radialGradient id="paint29_radial_1655_8707" cx="0" cy="0" r="1" gradientUnits="userSpaceOnUse" gradientTransform="translate(4.12289 81.6993) scale(3.56551 3.56552)">
<stop stop-color="#E9E5F9"/>
<stop offset="1" stop-color="#C4C1D2"/>
</radialGradient>
<linearGradient id="paint30_linear_1655_8707" x1="106.846" y1="87.4407" x2="106.974" y2="73.9101" gradientUnits="userSpaceOnUse">
<stop stop-color="#E9E5F9"/>
<stop offset="1" stop-color="#C4C1D2"/>
</linearGradient>
<radialGradient id="paint31_radial_1655_8707" cx="0" cy="0" r="1" gradientUnits="userSpaceOnUse" gradientTransform="translate(114.489 -168.526) rotate(180) scale(0.914234 0.914233)">
<stop stop-color="#E9E5F9"/>
<stop offset="1" stop-color="#C4C1D2"/>
</radialGradient>
<radialGradient id="paint32_radial_1655_8707" cx="0" cy="0" r="1" gradientUnits="userSpaceOnUse" gradientTransform="translate(104.743 81.6993) rotate(180) scale(3.56552 3.56552)">
<stop stop-color="#E9E5F9"/>
<stop offset="1" stop-color="#C4C1D2"/>
</radialGradient>
<linearGradient id="paint33_linear_1655_8707" x1="74.2812" y1="90.0738" x2="22.9378" y2="119.677" gradientUnits="userSpaceOnUse">
<stop stop-color="#E9E5F9"/>
<stop offset="1" stop-color="#C4C1D2"/>
</linearGradient>
<linearGradient id="paint34_linear_1655_8707" x1="54.4423" y1="86.033" x2="54.4423" y2="89.0134" gradientUnits="userSpaceOnUse">
<stop stop-color="#E9E5F9"/>
<stop offset="1" stop-color="#C4C1D2"/>
</linearGradient>
<linearGradient id="paint35_linear_1655_8707" x1="74.1532" y1="53.8886" x2="74.3178" y2="37.0667" gradientUnits="userSpaceOnUse">
<stop stop-color="#B5B3C3"/>
<stop offset="1" stop-color="#918F9C"/>
</linearGradient>
<linearGradient id="paint36_linear_1655_8707" x1="113.209" y1="49.3905" x2="113.429" y2="57.8197" gradientUnits="userSpaceOnUse">
<stop stop-color="white"/>
<stop offset="1" stop-color="#CDCADC"/>
</linearGradient>
<linearGradient id="paint37_linear_1655_8707" x1="118.073" y1="-169.44" x2="118.073" y2="-169.44" gradientUnits="userSpaceOnUse">
<stop stop-color="#82818C"/>
<stop offset="1"/>
</linearGradient>
<linearGradient id="paint38_linear_1655_8707" x1="289.949" y1="33.2998" x2="289.949" y2="42.4055" gradientUnits="userSpaceOnUse">
<stop stop-color="#2C3E63"/>
<stop offset="1"/>
</linearGradient>
<linearGradient id="paint39_linear_1655_8707" x1="90.1158" y1="126.497" x2="90.0426" y2="118.817" gradientUnits="userSpaceOnUse">
<stop stop-color="#EBEFF7"/>
<stop offset="1" stop-color="#B3B6C2"/>
</linearGradient>
<linearGradient id="paint40_linear_1655_8707" x1="285.116" y1="126.497" x2="285.043" y2="118.817" gradientUnits="userSpaceOnUse">
<stop stop-color="#EBEFF7"/>
<stop offset="1" stop-color="#B3B6C2"/>
</linearGradient>
<linearGradient id="paint41_linear_1655_8707" x1="103.464" y1="92.9444" x2="103.244" y2="71.2222" gradientUnits="userSpaceOnUse">
<stop stop-color="#EBEFF7"/>
<stop offset="1" stop-color="#B3B6C2"/>
</linearGradient>
<radialGradient id="paint42_radial_1655_8707" cx="0" cy="0" r="1" gradientUnits="userSpaceOnUse" gradientTransform="translate(91.158 79.944) scale(6.87504 6.87503)">
<stop stop-color="#EBEFF7"/>
<stop offset="1" stop-color="#B3B6C2"/>
</radialGradient>
<radialGradient id="paint43_radial_1655_8707" cx="0" cy="0" r="1" gradientUnits="userSpaceOnUse" gradientTransform="translate(106.81 83.7291) scale(5.74139)">
<stop stop-color="#EBEFF7"/>
<stop offset="1" stop-color="#B3B6C2"/>
</radialGradient>
<linearGradient id="paint44_linear_1655_8707" x1="271.902" y1="92.9444" x2="272.103" y2="71.2222" gradientUnits="userSpaceOnUse">
<stop stop-color="#EBEFF7"/>
<stop offset="1" stop-color="#B3B6C2"/>
</linearGradient>
<radialGradient id="paint45_radial_1655_8707" cx="0" cy="0" r="1" gradientUnits="userSpaceOnUse" gradientTransform="translate(284.189 -168.526) rotate(180) scale(6.87505 6.87503)">
<stop stop-color="#EBEFF7"/>
<stop offset="1" stop-color="#B3B6C2"/>
</radialGradient>
<radialGradient id="paint46_radial_1655_8707" cx="0" cy="0" r="1" gradientUnits="userSpaceOnUse" gradientTransform="translate(268.538 83.7291) rotate(180) scale(5.74139)">
<stop stop-color="#EBEFF7"/>
<stop offset="1" stop-color="#B3B6C2"/>
</radialGradient>
<linearGradient id="paint47_linear_1655_8707" x1="187.738" y1="82.3575" x2="188.03" y2="52.1329" gradientUnits="userSpaceOnUse">
<stop stop-color="#2C3E63"/>
<stop offset="1"/>
</linearGradient>
<linearGradient id="paint48_linear_1655_8707" x1="85.5446" y1="-169.441" x2="85.5446" y2="-169.441" gradientUnits="userSpaceOnUse">
<stop stop-color="#2C3E63"/>
<stop offset="1"/>
</linearGradient>
<linearGradient id="paint49_linear_1655_8707" x1="187.683" y1="90.1834" x2="187.683" y2="96.8573" gradientUnits="userSpaceOnUse">
<stop stop-color="#EBEFF7"/>
<stop offset="1" stop-color="#B3B6C2"/>
</linearGradient>
</defs>
</svg>
