<svg width="137" height="49" viewBox="0 0 137 49" fill="none" xmlns="http://www.w3.org/2000/svg">
<path d="M26.1947 0.339966H0.5V6.7786H26.1947V0.339966Z" fill="#041E3F"/>
<path d="M78.1815 0.339966H51.8893V6.7786H78.1815V0.339966Z" fill="#041E3F"/>
<path d="M78.1815 8.24194H51.8893V14.6806H78.1815V8.24194Z" fill="#041E3F"/>
<path d="M78.1815 16.4365H51.8893V22.5825H78.1815V16.4365Z" fill="#041E3F"/>
<path d="M106.864 0.339966H81.1693V6.7786H106.864V0.339966Z" fill="#041E3F"/>
<path d="M106.864 8.24194H81.1693V14.6806H106.864V8.24194Z" fill="#041E3F"/>
<path d="M106.864 16.4365H81.1693V22.5825H106.864V16.4365Z" fill="#041E3F"/>
<path d="M19.6216 10.2905V16.4365H5.87795V22.5825H0.5V10.2905H19.6216Z" fill="#041E3F"/>
<path d="M26.1947 26.0945H0.5V32.2404H26.1947V26.0945Z" fill="#041E3F"/>
<path d="M19.6216 35.4597V41.8983H5.87795V48.337H0.5V35.4597H19.6216Z" fill="#041E3F"/>
<path d="M48.9015 16.4365V22.5825H32.2687C30.6942 22.5825 29.7799 21.1455 29.7799 19.4686V0.339966H35.7554V16.4365H48.9015Z" fill="#00B27C"/>
<path d="M51.8893 26.0945V43.4378C51.8893 45.4718 50.6643 47.3127 48.7791 47.9595C48.2741 48.1322 47.8469 48.34 47.2762 48.34H34.3303C31.7698 48.34 29.78 46.2152 29.78 43.8007V26.0974H35.7555V40.1951C35.7555 40.9911 36.4636 41.714 37.2553 41.8252C37.327 41.834 37.5063 41.9013 37.587 41.9013H44.0465C44.1242 41.9013 44.1779 41.8311 44.2526 41.8252C45.0384 41.714 45.615 40.9911 45.615 40.1951V26.0974H51.8893V26.0945Z" fill="#00B27C"/>
<path d="M65.0862 33.1301C65.0862 33.5662 65.5224 33.9964 66.0602 33.9964H73.9867C75.0026 33.9964 75.9646 34.1281 76.843 34.494C79.2004 35.4773 80.9273 37.6255 81.2231 40.2273C81.25 40.4877 81.2679 40.7365 81.2679 41.0058C81.2679 41.275 81.25 41.5267 81.2201 41.7843C80.8616 45.027 78.2622 47.7312 74.9727 48.1614C74.653 48.2024 74.3244 48.3341 73.9867 48.3341H55.4746V41.8955H70.6195C71.1573 41.8955 71.5906 41.5999 71.5906 41.1638C71.5906 40.7277 71.1573 40.4321 70.6195 40.4321H62.7438C62.4002 40.4321 62.0626 40.2829 61.7399 40.2419C58.3907 39.8117 55.7585 37.1484 55.391 33.9086C55.3581 33.6511 55.3432 33.3555 55.3432 33.0892C55.3432 32.8229 55.3581 32.539 55.388 32.2785C55.6868 29.6738 57.4346 27.5666 59.8427 26.5862C60.7331 26.2203 61.7131 26.0916 62.7438 26.0916H81.1693V32.2375H66.0602C65.7883 32.2375 65.5463 32.3721 65.3731 32.5214C65.1938 32.6648 65.0862 32.9107 65.0862 33.1301Z" fill="#00B27C"/>
<path d="M91.0289 33.9965H84.7546V48.337H91.0289V33.9965Z" fill="#00B27C"/>
<path d="M129.87 26.0945V41.9921L114.259 27.2417C114.223 27.1978 113.999 27.1422 113.957 27.11C113.858 27.0281 114.035 26.9491 113.437 26.8876C113.138 26.5686 112.714 26.4018 112.2 26.232C111.877 26.1237 111.704 26.0945 111.352 26.0945H98.5012C96.2007 26.0945 94.3154 27.991 94.3154 30.2445V43.7978C94.3154 46.2123 96.4994 48.337 99.0599 48.337H110.793C113.479 48.337 115.528 46.022 115.528 43.4378V34.7427L129.257 47.6493L129.46 47.8132C129.556 47.8863 129.681 48.0619 129.798 48.1088C129.977 48.1878 130.195 48.337 130.41 48.337H136.144V26.0945H129.87ZM109.254 39.8907C109.254 40.8536 108.486 41.6496 107.527 41.7755C107.438 41.7872 107.327 41.8574 107.234 41.8574C107.142 41.8574 107.037 41.8984 106.951 41.8984H102.899C102.813 41.8984 102.723 41.8574 102.63 41.8574C102.538 41.8574 102.448 41.8223 102.358 41.8077C102.23 41.7901 102.101 41.7491 101.982 41.7052C101.859 41.6643 101.746 41.6057 101.641 41.5443C101.369 41.3892 101.139 41.1667 100.975 40.9092C100.906 40.8009 100.793 40.6838 100.751 40.5668C100.694 40.4146 100.59 40.2595 100.59 40.0927V40.0839C100.59 36.3875 100.602 34.8188 100.736 34.1633C100.73 34.1516 100.751 34.1428 100.751 34.1311C100.751 34.0696 100.718 34.0052 100.724 33.9467C100.799 33.2062 101.298 32.5946 102 32.3604C102.104 32.3224 102.2 32.299 102.314 32.2814C102.346 32.2726 102.376 32.2697 102.409 32.2668C102.481 32.258 102.559 32.2404 102.633 32.2404H107.219C107.297 32.2404 107.408 32.2522 107.482 32.258C108.459 32.3663 109.257 33.1653 109.257 34.1311V39.8907H109.254Z" fill="#00B27C"/>
<path d="M91.0289 26.0945H84.7546V32.2404H91.0289V26.0945Z" fill="#00B27C"/>
<path d="M136.144 0.339966V6.7786H126.583V22.5825H120.309V6.7786H110.449V0.339966H136.144Z" fill="#00B27C"/>
</svg>
