<svg width="216" height="72" viewBox="0 0 216 72" fill="none" xmlns="http://www.w3.org/2000/svg">
<path d="M40.9158 0H0.171417V9.65795H40.9158V0Z" fill="white"/>
<path d="M123.352 0H81.6602V9.65795H123.352V0Z" fill="white"/>
<path d="M123.352 11.853H81.6602V21.511H123.352V11.853Z" fill="white"/>
<path d="M123.352 24.1448H81.6602V33.3637H123.352V24.1448Z" fill="white"/>
<path d="M168.834 0H128.09V9.65795H168.834V0Z" fill="white"/>
<path d="M168.834 11.853H128.09V21.511H168.834V11.853Z" fill="white"/>
<path d="M168.834 24.1448H128.09V33.3637H168.834V24.1448Z" fill="white"/>
<path d="M30.4928 14.926V24.145H8.69931V33.3639H0.171417V14.926H30.4928Z" fill="white"/>
<path d="M40.9158 38.6318H0.171417V47.8508H40.9158V38.6318Z" fill="white"/>
<path d="M30.4928 52.6797V62.3376H8.69931V71.9956H0.171417V52.6797H30.4928Z" fill="white"/>
<path d="M76.9224 24.1449V33.3638H50.5475C48.0508 33.3638 46.601 31.2083 46.601 28.6929V0H56.0765V24.1449H76.9224Z" fill="#041E3F"/>
<path d="M81.6602 38.6318V64.6468C81.6602 67.6979 79.7177 70.4592 76.7282 71.4293C75.9275 71.6884 75.25 72 74.3451 72H53.8166C49.7564 72 46.601 68.8129 46.601 65.1912V38.6362H56.0765V59.7827C56.0765 60.9768 57.1993 62.0611 58.4548 62.228C58.5685 62.2411 58.8528 62.3421 58.9807 62.3421H69.2237C69.3468 62.3421 69.4321 62.2367 69.5506 62.228C70.7966 62.0611 71.711 60.9768 71.711 59.7827V38.6362H81.6602V38.6318Z" fill="#041E3F"/>
<path d="M102.587 49.1853C102.587 49.8394 103.278 50.4848 104.131 50.4848H116.7C118.311 50.4848 119.837 50.6823 121.23 51.2311C124.968 52.7061 127.706 55.9283 128.175 59.831C128.218 60.2217 128.246 60.5949 128.246 60.9988C128.246 61.4026 128.218 61.7802 128.17 62.1665C127.602 67.0306 123.48 71.0869 118.264 71.7323C117.757 71.7937 117.236 71.9913 116.7 71.9913H87.3455V62.3333H111.361C112.214 62.3333 112.901 61.8899 112.901 61.2358C112.901 60.5817 112.214 60.1383 111.361 60.1383H98.8723C98.3275 60.1383 97.7921 59.9144 97.2805 59.853C91.9695 59.2077 87.7955 55.2128 87.2128 50.3531C87.1607 49.9668 87.137 49.5234 87.137 49.1239C87.137 48.7244 87.1607 48.2986 87.2081 47.9079C87.6818 44.0008 90.4534 40.84 94.272 39.3693C95.6838 38.8206 97.2378 38.6274 98.8723 38.6274H128.09V47.8464H104.131C103.7 47.8464 103.316 48.0483 103.042 48.2722C102.757 48.4873 102.587 48.8561 102.587 49.1853Z" fill="#041E3F"/>
<path d="M143.724 50.4846H133.775V71.9955H143.724V50.4846Z" fill="#041E3F"/>
<path d="M205.315 38.6318V62.4782L180.56 40.3527C180.503 40.2869 180.148 40.2034 180.082 40.1552C179.925 40.0322 180.205 39.9137 179.257 39.8215C178.783 39.343 178.111 39.0928 177.296 38.8382C176.784 38.6757 176.509 38.6318 175.95 38.6318H155.573C151.925 38.6318 148.936 41.4765 148.936 44.8568V65.1868C148.936 68.8085 152.399 71.9957 156.459 71.9957H175.064C179.324 71.9957 182.574 68.5232 182.574 64.6468V51.6042L204.343 70.964L204.666 71.2099C204.817 71.3196 205.016 71.583 205.201 71.6532C205.485 71.7718 205.831 71.9957 206.172 71.9957H215.264V38.6318H205.315ZM172.624 59.3262C172.624 60.7705 171.407 61.9646 169.886 62.1533C169.744 62.1709 169.569 62.2763 169.422 62.2763C169.275 62.2763 169.109 62.3377 168.972 62.3377H162.547C162.41 62.3377 162.268 62.2763 162.121 62.2763C161.974 62.2763 161.832 62.2236 161.69 62.2016C161.486 62.1753 161.282 62.1138 161.093 62.048C160.899 61.9865 160.718 61.8987 160.553 61.8065C160.122 61.5739 159.757 61.2402 159.496 60.8539C159.387 60.6915 159.207 60.5159 159.141 60.3403C159.051 60.112 158.885 59.8793 158.885 59.6291V59.6159C158.885 54.0714 158.904 51.7184 159.117 50.735C159.108 50.7174 159.141 50.7043 159.141 50.6867C159.141 50.5945 159.089 50.4979 159.098 50.4101C159.217 49.2995 160.008 48.382 161.121 48.0308C161.287 47.9737 161.439 47.9386 161.619 47.9122C161.671 47.8991 161.718 47.8947 161.77 47.8903C161.884 47.8771 162.007 47.8508 162.126 47.8508H169.398C169.521 47.8508 169.696 47.8683 169.815 47.8771C171.364 48.0396 172.629 49.238 172.629 50.6867V59.3262H172.624Z" fill="#041E3F"/>
<path d="M143.724 38.6318H133.775V47.8508H143.724V38.6318Z" fill="#041E3F"/>
<path d="M215.264 0V9.65795H200.103V33.3638H190.154V9.65795H174.519V0H215.264Z" fill="#041E3F"/>
</svg>
