<svg width="18" height="17" viewBox="0 0 18 17" fill="none" xmlns="http://www.w3.org/2000/svg">
<path d="M6.61173 7.40291C8.26045 7.40291 9.597 6.06636 9.597 4.41764C9.597 2.76893 8.26045 1.43237 6.61173 1.43237C4.96302 1.43237 3.62646 2.76893 3.62646 4.41764C3.62646 6.06636 4.96302 7.40291 6.61173 7.40291Z" stroke="#81858A" stroke-width="1.7" stroke-linecap="round" stroke-linejoin="round"/>
<path d="M1.23828 15.7617H11.9852V15.1143C11.9757 14.2042 11.7357 13.3112 11.2876 12.5191C10.8394 11.7268 10.1978 11.0611 9.42261 10.584C8.64742 10.107 7.76397 9.83421 6.85479 9.79116C6.77373 9.78733 6.6927 9.78532 6.61176 9.78516C6.53083 9.78532 6.44979 9.78733 6.36874 9.79116C5.45956 9.83421 4.57611 10.107 3.80092 10.584C3.02574 11.0611 2.38411 11.7268 1.93596 12.5191C1.48782 13.3112 1.24779 14.2042 1.23828 15.1143V15.7617Z" stroke="#81858A" stroke-width="1.7" stroke-linecap="round" stroke-linejoin="round"/>
<path d="M11.3882 7.40291C13.0369 7.40291 14.3735 6.06636 14.3735 4.41764C14.3735 2.76893 13.0369 1.43237 11.3882 1.43237" stroke="#81858A" stroke-width="1.7" stroke-linecap="round" stroke-linejoin="round"/>
<path d="M14.3734 15.7618H16.7617V15.1143C16.7521 14.2042 16.5121 13.3112 16.0639 12.5191C15.6158 11.7268 14.9742 11.0611 14.199 10.584C13.6979 10.2757 13.1515 10.0527 12.5823 9.92188" stroke="#81858A" stroke-width="1.7" stroke-linecap="round" stroke-linejoin="round"/>
</svg>
