<svg width="20" height="20" viewBox="0 0 20 20" fill="none" xmlns="http://www.w3.org/2000/svg">
<path d="M2.70267 11.9901V17.9606C2.70267 18.1366 2.77256 18.3053 2.89698 18.4298C3.02137 18.5541 3.19011 18.624 3.36606 18.624H16.6339C16.8099 18.624 16.9786 18.5541 17.1031 18.4298C17.2274 18.3053 17.2973 18.1366 17.2973 17.9606V11.9901" stroke="#00B27C" stroke-width="1.7" stroke-linecap="round" stroke-linejoin="round"/>
<path d="M11.3268 11.9901V18.624" stroke="#00B27C" stroke-width="1.7" stroke-linecap="round" stroke-linejoin="round"/>
<path d="M2.70267 13.9803H11.3268" stroke="#00B27C" stroke-width="1.7" stroke-linecap="round" stroke-linejoin="round"/>
<path d="M1.37589 6.0196L3.36606 1.37585H16.6339L18.6241 6.0196H1.37589Z" stroke="#00B27C" stroke-width="1.7" stroke-linecap="round" stroke-linejoin="round"/>
<path d="M7.05453 6.01965V7.34644C7.05453 8.05021 6.77496 8.72515 6.27731 9.22279C5.77967 9.72044 5.10472 10 4.40096 10H4.02946C3.32569 10 2.65074 9.72044 2.1531 9.22279C1.65546 8.72515 1.37589 8.05021 1.37589 7.34644V6.01965" stroke="#00B27C" stroke-width="1.7" stroke-linecap="round" stroke-linejoin="round"/>
<path d="M12.9852 6.01965V7.34644C12.9852 8.05021 12.7057 8.72515 12.208 9.22279C11.7104 9.72044 11.0354 10 10.3317 10H9.66828C8.96451 10 8.28957 9.72044 7.79193 9.22279C7.29428 8.72515 7.01471 8.05021 7.01471 7.34644V6.01965" stroke="#00B27C" stroke-width="1.7" stroke-linecap="round" stroke-linejoin="round"/>
<path d="M18.6241 6.01965V7.34644C18.6241 8.05021 18.3445 8.72515 17.8469 9.22279C17.3492 9.72044 16.6743 10 15.9705 10H15.6388C14.9351 10 14.2602 9.72044 13.7625 9.22279C13.2648 8.72515 12.9853 8.05021 12.9853 7.34644V6.01965" stroke="#00B27C" stroke-width="1.7" stroke-linecap="round" stroke-linejoin="round"/>
</svg>
