<svg width="20" height="20" viewBox="0 0 20 20" fill="none" xmlns="http://www.w3.org/2000/svg">
<path d="M5.13003 14.8701H3.20619C2.72526 14.8301 2.27694 14.6108 1.95015 14.2556C1.62337 13.9005 1.44199 13.4355 1.44199 12.9529C1.44199 12.4703 1.62337 12.0053 1.95015 11.6502C2.27694 11.2951 2.72526 11.0758 3.20619 11.0357H6.2578L8.22144 9.07208L2.83469 5.75511C2.41999 5.49875 2.1181 5.09449 1.99002 4.62408C1.86195 4.15366 1.91726 3.65216 2.14476 3.22095C2.2452 2.97417 2.39513 2.75058 2.58531 2.56399C2.77548 2.37739 3.00187 2.23174 3.25052 2.13601C3.49916 2.04028 3.76477 1.99651 4.03098 2.0074C4.2972 2.01829 4.55835 2.0836 4.79834 2.19933L11.8303 5.44995L15.2269 2.01357C15.5928 1.64761 16.0892 1.44202 16.6067 1.44202C17.1243 1.44202 17.6207 1.64761 17.9866 2.01357C18.3525 2.37953 18.5582 2.87588 18.5582 3.39343C18.5582 3.91097 18.3525 4.40732 17.9866 4.77329L14.5502 8.16986L17.8009 15.2682C17.9078 15.5045 17.9662 15.76 17.9724 16.0194C17.9788 16.2787 17.933 16.5367 17.8376 16.7781C17.7423 17.0193 17.5996 17.239 17.4178 17.4241C17.2359 17.6092 17.0188 17.7559 16.7792 17.8554C16.348 18.083 15.8465 18.1382 15.3762 18.0101C14.9057 17.8821 14.5014 17.5801 14.2451 17.1655L10.9281 11.7787L8.96444 13.7424V16.794C8.9244 17.2749 8.70507 17.7233 8.34994 18.0501C7.99482 18.3768 7.52984 18.5582 7.04724 18.5582C6.56465 18.5582 6.09966 18.3768 5.74455 18.0501C5.38942 17.7233 5.17008 17.2749 5.13003 16.794V14.8701Z" stroke="#00B27C" stroke-width="1.7" stroke-linecap="round" stroke-linejoin="round"/>
</svg>
