<svg width="18" height="18" viewBox="0 0 18 18" fill="none" xmlns="http://www.w3.org/2000/svg">
<path d="M2.4324 10.7913V16.1647C2.4324 16.3231 2.49531 16.475 2.60728 16.587C2.71924 16.6989 2.87111 16.7618 3.02946 16.7618H14.9705C15.1289 16.7618 15.2808 16.6989 15.3928 16.587C15.5047 16.475 15.5676 16.3231 15.5676 16.1647V10.7913" stroke="#81858A" stroke-width="1.7" stroke-linecap="round" stroke-linejoin="round"/>
<path d="M10.1941 10.7913V16.7618" stroke="#81858A" stroke-width="1.7" stroke-linecap="round" stroke-linejoin="round"/>
<path d="M2.4324 12.5823H10.1941" stroke="#81858A" stroke-width="1.7" stroke-linecap="round" stroke-linejoin="round"/>
<path d="M1.2383 5.41766L3.02946 1.23828H14.9705L16.7617 5.41766H1.2383Z" stroke="#81858A" stroke-width="1.7" stroke-linecap="round" stroke-linejoin="round"/>
<path d="M6.34907 5.41772V6.61183C6.34907 7.24522 6.09746 7.85268 5.64958 8.30055C5.20171 8.74844 4.59425 9.00005 3.96086 9.00005H3.62651C2.99312 9.00005 2.38567 8.74844 1.93779 8.30055C1.48991 7.85268 1.2383 7.24522 1.2383 6.61183V5.41772" stroke="#81858A" stroke-width="1.7" stroke-linecap="round" stroke-linejoin="round"/>
<path d="M11.6867 5.41772V6.61183C11.6867 7.24522 11.4351 7.85268 10.9872 8.30055C10.5394 8.74844 9.93191 9.00005 9.29852 9.00005H8.70146C8.06807 9.00005 7.46062 8.74844 7.01274 8.30055C6.56486 7.85268 6.31325 7.24522 6.31325 6.61183V5.41772" stroke="#81858A" stroke-width="1.7" stroke-linecap="round" stroke-linejoin="round"/>
<path d="M16.7617 5.41772V6.61183C16.7617 7.24522 16.5101 7.85268 16.0622 8.30055C15.6143 8.74844 15.0068 9.00005 14.3735 9.00005H14.075C13.4416 9.00005 12.8342 8.74844 12.3862 8.30055C11.9383 7.85268 11.6867 7.24522 11.6867 6.61183V5.41772" stroke="#81858A" stroke-width="1.7" stroke-linecap="round" stroke-linejoin="round"/>
</svg>
