<svg width="20" height="20" viewBox="0 0 20 20" fill="none" xmlns="http://www.w3.org/2000/svg">
<path d="M4.69287 10V6.51059C4.70323 5.82468 4.84883 5.14757 5.12134 4.51802C5.39384 3.88849 5.78789 3.31891 6.2809 2.84192C6.77391 2.36494 7.35619 1.98992 7.99439 1.73836C8.63258 1.48679 9.31415 1.36363 10 1.37593C10.6859 1.36363 11.3675 1.48679 12.0056 1.73836C12.6438 1.98992 13.2261 2.36494 13.7191 2.84192C14.2122 3.31891 14.6062 3.88849 14.8787 4.51802C15.1511 5.14757 15.2968 5.82468 15.3072 6.51059V10" stroke="white" stroke-width="1.7" stroke-linecap="round" stroke-linejoin="round"/>
<path d="M2.70269 8.00983H4.02947C4.20542 8.00983 4.37416 8.07972 4.49856 8.20413C4.62297 8.32853 4.69286 8.49728 4.69286 8.67322V12.6536C4.69286 12.8295 4.62297 12.9983 4.49856 13.1227C4.37416 13.2471 4.20542 13.317 4.02947 13.317H2.70269C2.3508 13.317 2.01333 13.1772 1.76451 12.9284C1.51569 12.6795 1.3759 12.3421 1.3759 11.9902V9.33661C1.3759 8.98472 1.51569 8.64725 1.76451 8.39843C2.01333 8.14962 2.3508 8.00983 2.70269 8.00983Z" stroke="white" stroke-width="1.7" stroke-linecap="round" stroke-linejoin="round"/>
<path d="M17.2973 13.317H15.9705C15.7946 13.317 15.6258 13.2471 15.5014 13.1227C15.3771 12.9983 15.3071 12.8295 15.3071 12.6536V8.67322C15.3071 8.49728 15.3771 8.32853 15.5014 8.20413C15.6258 8.07972 15.7946 8.00983 15.9705 8.00983H17.2973C17.6492 8.00983 17.9867 8.14962 18.2355 8.39843C18.4843 8.64725 18.6241 8.98472 18.6241 9.33661V11.9902C18.6241 12.3421 18.4843 12.6795 18.2355 12.9284C17.9867 13.1772 17.6492 13.317 17.2973 13.317Z" stroke="white" stroke-width="1.7" stroke-linecap="round" stroke-linejoin="round"/>
<path d="M12.6536 16.9656C13.3573 16.9656 14.0322 16.6861 14.5299 16.1884C15.0276 15.6907 15.3071 15.0158 15.3071 14.3121V11.3268" stroke="white" stroke-width="1.7" stroke-linecap="round" stroke-linejoin="round"/>
<path d="M12.6536 16.9656C12.6536 17.4055 12.4788 17.8274 12.1678 18.1384C11.8568 18.4494 11.435 18.6241 10.9951 18.6241H9.00492C8.56506 18.6241 8.14322 18.4494 7.8322 18.1384C7.52117 17.8274 7.34644 17.4055 7.34644 16.9656C7.34644 16.5258 7.52117 16.1039 7.8322 15.7929C8.14322 15.4819 8.56506 15.3072 9.00492 15.3072H10.9951C11.435 15.3072 11.8568 15.4819 12.1678 15.7929C12.4788 16.1039 12.6536 16.5258 12.6536 16.9656Z" stroke="white" stroke-width="1.7" stroke-linecap="round" stroke-linejoin="round"/>
</svg>
